<svg width="424" height="212" viewBox="0 0 424 212" fill="none" xmlns="http://www.w3.org/2000/svg">
<g clip-path="url(#clip0_6_44858)">
<path d="M405.226 137.356L416.095 131.597C417.765 130.671 419.069 130.11 419.812 129.739C420.65 129.461 421.205 129.273 421.482 129.273C421.948 129.273 422.225 129.273 422.409 129.456C422.503 129.55 422.592 129.733 422.592 130.105C422.592 130.665 421.665 131.498 419.807 132.613C419.252 132.985 418.786 133.168 418.508 133.356C415.163 135.492 411.912 137.723 408.755 140.047C405.687 142.372 404.017 143.487 403.828 143.487C403.551 143.487 403.362 143.392 403.085 143.115C402.902 142.932 402.713 142.649 402.619 142.372L399.462 131.225C399.368 130.948 399.368 130.76 399.368 130.576C399.274 130.393 399.274 130.205 399.274 130.11C399.274 129.739 399.368 129.555 399.457 129.367C399.551 129.184 399.734 129.089 400.012 129.089C400.939 129.089 402.425 131.414 404.567 135.963L405.216 137.356H405.226Z" fill="white"/>
<path d="M97.936 66.0507C96.669 65.1921 95.5382 64.4592 94.2712 64.0875C93.1456 63.721 91.8734 63.4749 90.6065 63.4749C89.8997 63.4749 89.3395 63.5953 88.7741 63.8414C88.35 64.0875 88.0673 64.4539 88.0673 64.8204C88.0673 65.4329 88.4914 65.7994 89.1929 66.1659C89.8997 66.5324 90.884 66.658 92.1509 66.658C93.2765 66.658 94.266 66.658 95.1089 66.5376C96.0931 66.4172 97.0826 66.2915 97.9255 66.0455M99.7683 67.8883C98.5014 68.2548 97.3705 68.5009 96.1036 68.7469C94.978 68.8673 93.7058 68.993 92.4389 68.993C90.1824 68.993 88.3501 68.6265 87.0831 67.8883C85.8161 67.1554 85.1094 66.1711 85.1094 64.9461C85.1094 63.721 85.6748 62.742 86.659 62.0038C87.6433 61.3913 89.0568 61.0248 90.884 61.0248C92.7111 61.0248 94.5487 61.3913 96.2397 62.0038C98.0721 62.6163 99.6217 63.5953 101.03 64.9461C107.653 62.9828 116.532 56.9831 127.804 47.1773C133.583 42.031 138.232 38.2301 141.614 35.6595C147.53 31.2461 153.027 27.6966 158.101 25.1208C163.315 22.545 167.262 21.1995 169.796 21.1995C170.362 21.1995 170.922 21.3199 171.205 21.4456C171.629 21.6916 171.77 21.9377 171.77 22.3042C171.77 22.9167 170.362 23.7753 167.681 24.6339C164.865 25.4925 162.608 26.5972 160.634 27.6966C157.959 29.2881 153.446 32.8429 146.965 38.3557C142.876 41.9105 139.494 44.7272 137.102 46.6904C129.353 52.9414 123.008 57.4752 118.076 60.4175C113.003 63.3597 107.789 65.6895 102.574 67.4014C102.857 68.3804 103.14 69.239 103.281 70.0976C103.423 70.9562 103.423 71.6892 103.423 72.4274C103.423 74.7571 102.716 77.0816 101.308 79.537C99.8992 81.9923 97.3601 85.1754 93.7006 89.0967C92.2923 90.5678 90.3185 92.4054 87.7846 94.6095C83.6958 98.0387 81.7273 100.614 81.7273 102.332C81.7273 103.436 82.2928 104.415 83.1356 105.028C84.1199 105.761 85.3921 106.133 86.9417 106.133C89.4756 106.133 92.5802 105.4 96.1036 103.928C99.7683 102.583 103.852 100.374 108.506 97.557C111.323 95.8398 114.145 94.0022 116.82 91.9185C119.636 89.8349 121.186 88.8559 121.469 88.8559C121.893 88.8559 122.034 88.9763 122.312 89.1019C122.453 89.348 122.594 89.5941 122.594 89.9605C122.594 90.5731 121.752 91.5521 119.778 93.0232C117.945 94.4943 115.27 96.3319 111.888 98.536C106.532 101.965 101.742 104.541 97.6533 106.258C93.5645 107.85 89.9049 108.708 86.6643 108.708C83.8477 108.708 81.5912 107.975 79.9002 106.504C78.0678 105.033 77.2249 103.075 77.2249 100.62C77.2249 98.1643 78.0678 95.8398 79.6227 93.0232C81.1724 90.327 83.5702 87.6308 86.3868 84.9346C87.7951 83.7095 89.6275 81.9923 92.0253 79.9087C97.381 75.2544 100.056 71.9457 100.056 69.862C100.056 69.4956 100.056 68.883 99.9149 68.1448C99.9149 68.0244 99.7736 67.8988 99.7736 67.8988L99.7683 67.8883ZM89.0621 46.6904C86.2454 48.282 83.5649 49.6327 81.1724 50.3656C78.6385 51.2242 76.3821 51.5907 74.1256 51.5907C71.4504 51.5907 69.3353 51.0986 67.927 49.9991C66.3773 48.8945 65.6705 47.4234 65.6705 45.4653C65.6705 42.7691 68.6285 39.5808 74.267 35.7852C75.1099 35.2931 75.6753 34.9266 76.0994 34.6805C77.9317 33.5759 79.1987 32.5969 79.9054 31.8639C80.6122 31.131 80.8897 30.2724 80.8897 29.6598C80.8897 29.0473 80.607 28.6808 80.1829 28.4348C79.6175 28.0683 78.916 27.9426 77.9265 27.9426C74.8272 27.9426 70.8797 28.9217 66.2307 30.8849C61.5817 32.8482 56.9328 35.4187 52.4199 38.7275C51.4356 39.4604 50.0221 40.5651 48.6138 41.9158C47.0641 43.3869 45.9385 44.1199 45.3731 44.1199C45.2318 44.1199 44.9491 43.9994 44.6663 43.7534C44.3836 43.633 44.2423 43.3869 44.2423 43.1408C44.2423 42.4079 44.9491 41.3032 46.216 40.0782C47.6243 38.7327 49.4567 37.2616 51.9958 35.6648C56.9275 32.356 61.7179 29.7803 66.7909 27.8222C71.7226 25.9846 75.9528 25.0056 79.3348 25.0056C82.01 25.0056 84.1251 25.4977 85.5334 26.4768C86.9417 27.4558 87.6485 28.9269 87.6485 30.8901C87.6485 31.9948 87.3658 33.0942 86.5229 34.1989C85.8161 35.3035 84.6905 36.403 83.1409 37.5076C82.298 38.1202 81.0258 38.8531 79.4761 39.9578C74.5445 43.1461 72.0053 45.5962 72.0053 47.3082C72.0053 47.6747 72.288 48.0411 72.8482 48.2872C73.4136 48.5333 74.1152 48.6537 75.1046 48.6537C77.6385 48.6537 80.6017 47.7951 84.2665 45.9575C87.9312 44.1199 94.2712 40.1986 103.009 34.3141C105.684 32.4765 108.647 30.2724 112.03 27.6966C115.27 25.1208 117.244 23.8957 117.945 23.8957C118.37 23.8957 118.788 23.8957 118.93 24.1418C119.212 24.2622 119.354 24.5083 119.354 24.7543C119.354 25.2464 116.537 28.0631 110.757 33.089C104.978 38.2353 99.7683 43.3817 94.9728 48.6537C90.6065 53.5539 84.544 60.6635 76.937 69.9772C69.4662 79.2909 63.8329 85.5419 60.3096 88.8506C53.2628 95.4681 46.216 100.494 39.4519 103.803C32.5465 106.991 25.9238 108.703 19.3011 108.703C13.9454 108.703 9.29637 107.358 5.49027 104.536C1.82553 101.84 -0.00683594 98.4104 -0.00683594 94.4891C-0.00683594 92.039 0.836054 90.0757 2.39095 88.6046C3.94061 87.013 5.91434 86.2748 8.44824 86.2748C10.2806 86.2748 11.8303 86.767 12.9559 87.746C14.0815 88.6046 14.6469 89.9501 14.6469 91.5468C14.6469 93.018 14.0815 94.1226 12.9559 94.976C11.8303 95.8293 10.4167 96.3267 8.44824 96.3267C8.16553 96.3267 7.60535 96.2063 6.89858 96.0806C6.19181 95.9602 5.63163 95.8346 5.20757 95.8346C4.7835 95.955 4.64215 96.0806 4.50079 96.2011C4.35944 96.3215 4.35944 96.6932 4.35944 97.0596C4.35944 99.0229 5.76775 100.981 8.58436 102.819C11.401 104.656 14.5003 105.515 17.8823 105.515C21.2644 105.515 25.0705 104.41 29.0127 102.326C33.1015 100.122 38.452 96.2011 45.0747 90.5626C48.8808 87.3743 55.5035 80.7568 65.2255 70.7102C74.9476 60.6635 82.8372 52.6954 89.0411 46.6904H89.0621Z" fill="white"/>
<path d="M142.955 88.2327C143.049 88.1489 143.143 88.0704 143.426 88.0704C143.709 87.9866 143.897 87.9081 144.18 87.9081C145.023 87.9081 145.777 87.9918 146.342 88.1541C147.002 88.3164 147.279 88.5625 147.279 88.7248C147.279 88.8085 146.997 89.1331 146.437 89.7038C145.871 90.1959 145.405 90.6828 145.028 91.0912C143.903 92.3162 143.054 93.6251 142.494 94.7664C141.835 95.9914 141.557 97.0542 141.557 98.0332C141.557 98.6876 141.746 99.2583 142.217 99.6667C142.594 100.075 143.154 100.321 143.908 100.321C144.662 100.321 145.505 100.075 146.353 99.7504C147.29 99.3421 148.326 98.6091 149.641 97.7086C150.206 97.3003 150.86 96.7296 151.709 96.159C152.646 95.3423 153.305 94.9339 153.588 94.9339C153.871 94.9339 154.059 95.0177 154.153 95.0962C154.248 95.2585 154.342 95.4208 154.342 95.6669C154.342 95.9129 154.153 96.159 153.871 96.5673C153.494 96.8919 152.839 97.4678 151.709 98.2845C149.546 99.8394 147.761 100.897 146.447 101.473C145.133 102.043 143.908 102.373 142.688 102.373C141.091 102.373 139.871 101.965 139.023 101.148C138.18 100.248 137.709 99.1065 137.709 97.6353C137.709 97.0647 137.803 96.494 137.992 95.7559C138.18 95.1014 138.369 94.3685 138.652 93.5518C135.929 95.7558 133.296 98.0437 130.856 100.415C128.317 102.787 126.066 105.153 123.998 107.603C123.244 107.687 122.495 107.766 121.836 107.849C121.082 107.933 120.522 107.933 119.956 107.933C119.391 107.933 118.925 107.849 118.548 107.771C118.265 107.687 118.077 107.525 118.077 107.363C118.077 107.038 119.014 105.975 120.705 104.342C121.83 103.279 122.679 102.462 123.333 101.808C126.809 98.295 129.066 95.8449 130.285 94.29C131.505 92.7403 132.071 91.51 132.071 90.777C132.071 90.531 132.071 90.3687 131.976 90.2849C131.882 90.1226 131.788 90.1226 131.6 90.1226C130.846 90.1226 129.814 90.4472 128.5 91.0231C127.28 91.6775 125.589 92.6565 123.521 94.0439C122.956 94.4522 122.207 95.0229 121.265 95.7611C120.234 96.6616 119.48 97.0699 119.103 97.0699C118.914 97.0699 118.726 96.9862 118.537 96.8239C118.349 96.6616 118.255 96.4993 118.255 96.3317C118.255 96.0071 118.537 95.5988 119.192 95.0229C119.851 94.4522 120.977 93.5518 122.574 92.4105C124.924 90.6933 127.176 89.3059 129.338 88.2431C131.594 87.1804 133.191 86.6882 134.317 86.6882C135.16 86.6882 135.819 86.9343 136.29 87.3427C136.856 87.8348 137.044 88.484 137.044 89.3059C137.044 89.8766 136.95 90.531 136.667 91.2692C136.479 92.0859 136.102 92.9026 135.542 93.8816L142.965 88.2431L142.955 88.2327Z" fill="white"/>
<path d="M196.963 91.1699C194.99 92.395 192.828 93.8661 190.671 95.4995C188.508 97.133 187.194 97.9497 186.912 97.9497C186.723 97.9497 186.629 97.8659 186.535 97.7874C186.44 97.6251 186.346 97.4628 186.346 97.2167C186.346 96.8084 187.472 95.7456 189.822 94.0284C192.079 92.395 195.833 89.8611 201.188 86.4319L228.716 59.5537C229.093 59.1453 229.47 58.8992 229.747 58.7369C230.124 58.6532 230.501 58.5746 230.967 58.5746C231.81 58.5746 232.564 58.6584 233.129 58.8992C233.695 59.0615 233.972 59.3076 233.972 59.6322C233.972 59.8782 233.972 60.0405 233.784 60.2028C233.689 60.3651 233.501 60.6112 233.124 60.9358L201.277 93.2902C198.927 95.6618 197.236 97.7036 196.016 99.5831C194.796 101.463 194.136 102.934 194.136 103.996C194.136 104.651 194.325 105.138 194.513 105.468C194.796 105.714 195.267 105.876 195.922 105.876C197.33 105.876 199.021 105.468 200.995 104.651C202.968 103.918 205.314 102.609 208.136 100.892C209.921 99.7506 211.8 98.5203 213.68 97.1329C215.559 95.7456 216.591 95.0912 216.779 95.0912C217.062 95.0912 217.156 95.1749 217.345 95.2535C217.439 95.4158 217.533 95.5781 217.533 95.8241C217.533 96.3162 215.842 97.7874 212.366 100.154L212.177 100.316C208.701 102.688 205.508 104.562 202.408 105.871C199.403 107.258 196.864 107.913 194.896 107.913C193.487 107.913 192.356 107.588 191.608 106.934C190.76 106.279 190.388 105.3 190.388 104.154C190.388 102.604 190.953 100.803 191.985 98.6826C193.11 96.5571 194.707 94.0284 196.963 91.1647M175.451 83.5734C175.169 83.5734 174.886 83.4896 174.792 83.4111C174.698 83.3274 174.603 83.1651 174.603 83.0028C174.603 82.8405 175.635 82.1023 177.703 80.7149C179.771 79.4061 181.462 77.9349 182.776 76.1392C183.247 75.5686 183.713 74.5843 184.278 73.2807C185.31 70.9091 186.535 69.684 188.037 69.684C188.88 69.684 189.634 69.9301 190.105 70.3385C190.576 70.7468 190.859 71.4012 190.859 72.1342C190.859 73.3593 190.199 74.6681 188.885 76.0555C187.571 77.4428 185.598 78.8354 182.875 80.3851C181.09 81.4479 179.493 82.1808 178.273 82.7567C176.959 83.3274 176.017 83.5734 175.457 83.5734M162.3 103.264C160.421 104.818 158.73 106.044 157.227 106.776C155.63 107.593 154.222 108.002 153.002 108.002C151.688 108.002 150.746 107.593 149.997 106.776C149.338 105.96 148.966 104.735 148.966 103.264C148.966 101.468 149.437 99.7506 150.468 98.1172C151.405 96.4838 152.913 94.9289 154.976 93.3792C157.604 91.3374 160.426 89.704 163.525 88.4789C166.53 87.2539 169.164 86.6832 171.509 86.6832C172.823 86.6832 173.766 86.9293 174.42 87.3376C174.985 87.746 175.357 88.4789 175.451 89.4632C175.923 88.9711 176.389 88.5627 176.954 88.1543C177.519 87.746 178.174 87.3376 178.833 87.013C179.116 87.013 179.493 87.013 179.959 86.9293H180.896C182.022 86.9293 182.776 87.013 183.247 87.1753C183.718 87.2591 183.907 87.4999 183.907 87.9083C183.907 88.2329 183.247 88.8873 181.839 90.0338C180.996 90.6045 180.43 91.0128 179.959 91.4212C175.823 94.7718 172.63 97.6303 170.284 100.002C168.028 102.452 166.808 104.007 166.808 104.902C166.808 105.227 166.902 105.473 167.091 105.557C167.279 105.719 167.562 105.803 168.028 105.803C169.342 105.803 171.316 105.232 174.038 104.085C176.666 102.944 179.394 101.473 182.304 99.5098C183.524 98.6931 184.844 97.7926 186.252 96.7298C187.66 95.6671 188.508 95.0964 188.791 95.0964C189.074 95.0964 189.168 95.1802 189.356 95.3425C189.451 95.4262 189.545 95.5885 189.545 95.8346C189.545 96.3267 187.854 97.7141 184.378 100.164L184.189 100.327C180.807 102.698 177.519 104.572 174.42 105.881C171.321 107.269 168.782 107.923 166.813 107.923C165.405 107.923 164.274 107.598 163.431 106.86C162.588 106.206 162.211 105.305 162.211 104.164V103.593C162.211 103.51 162.305 103.347 162.305 103.269L162.3 103.264ZM161.923 101.63L172.446 91.8243C172.918 91.416 173.2 91.0914 173.383 90.683C173.666 90.3584 173.76 90.0286 173.76 89.704C173.76 89.3794 173.666 89.2119 173.478 89.0496C173.195 88.8873 172.912 88.8035 172.541 88.8035C171.509 88.8035 170.19 89.2119 168.499 89.9448C166.808 90.6778 165.023 91.7406 163.237 93.0494C160.327 95.0912 157.976 97.2952 156.002 99.5831C154.123 101.871 153.186 103.588 153.186 104.651C153.186 104.975 153.28 105.305 153.562 105.551C153.845 105.797 154.222 105.876 154.594 105.876C155.442 105.876 156.473 105.468 157.787 104.735C159.101 104.002 160.51 102.939 161.923 101.63Z" fill="white"/>
<path d="M235.747 97.3791C231.8 100.73 228.229 103.342 224.942 105.059C221.654 106.855 218.932 107.756 216.581 107.756C214.984 107.756 213.764 107.347 212.822 106.53C211.885 105.714 211.414 104.651 211.414 103.342C211.414 101.463 212.256 99.5046 214.042 97.4576C215.733 95.3321 218.178 93.2903 221.371 91.3323C223.722 89.7826 226.162 88.636 228.701 87.8193C231.146 86.9189 233.397 86.5105 235.276 86.5105C236.779 86.5105 237.999 86.8351 238.941 87.5733C239.878 88.3062 240.349 89.2067 240.349 90.3532C240.349 91.0862 240.067 91.9867 239.595 92.9657C239.03 93.8662 238.187 94.9289 237.151 96.0702C237.433 96.6409 237.904 97.133 238.559 97.4576C239.124 97.7037 239.779 97.866 240.627 97.866C241.752 97.866 243.161 97.3738 244.668 96.4786C246.171 95.5781 247.113 95.0912 247.485 95.0912C247.674 95.0912 247.862 95.175 247.956 95.2535C248.051 95.3373 248.051 95.4996 248.051 95.7456C248.051 96.2378 247.208 97.0545 245.422 98.0335C243.731 99.0125 242.135 99.5046 240.632 99.5046C239.695 99.5046 238.753 99.3423 238.004 99.0125C237.25 98.6879 236.501 98.112 235.747 97.3791ZM215.549 104.489C215.549 104.981 215.738 105.305 215.926 105.468C216.209 105.714 216.68 105.792 217.241 105.792C218.555 105.792 220.34 105.222 222.596 104.159C224.758 103.096 227.292 101.463 230.203 99.3371C232.742 97.4576 234.711 95.7404 236.119 94.107C237.527 92.4736 238.187 91.2485 238.187 90.2695C238.187 89.7773 237.999 89.369 237.622 89.0444C237.339 88.7983 236.868 88.636 236.213 88.636C235.182 88.636 233.768 89.0444 231.988 89.9449C230.203 90.7616 228.23 91.9867 226.256 93.4578C222.968 95.9079 220.429 98.112 218.46 100.075C216.487 102.117 215.549 103.588 215.549 104.489Z" fill="white"/>
<path d="M271.178 97.8709C270.707 97.2165 270.424 96.5621 270.147 96.0752C269.958 95.5046 269.864 95.0124 269.864 94.5203C269.864 92.5571 270.707 90.8451 272.492 89.2117C274.183 87.5782 276.157 86.7615 278.225 86.7615C279.068 86.7615 279.727 86.9238 280.293 87.3322C280.764 87.7405 280.952 88.2327 280.952 88.9656C280.952 89.8661 280.481 90.9289 279.544 92.2325C278.607 93.4575 276.916 95.337 274.471 97.7086C275.036 97.9547 275.597 98.2008 276.162 98.3631C276.822 98.5254 277.382 98.6091 278.042 98.6091C280.109 98.6091 282.083 98.0385 283.957 96.8919C285.837 95.7506 286.774 95.1747 286.868 95.1747C287.151 95.1747 287.339 95.2585 287.434 95.337C287.622 95.4993 287.716 95.6616 287.716 95.8292C287.716 96.5621 286.685 97.4626 284.429 98.5253C282.172 99.6667 279.921 100.243 277.476 100.243C276.633 100.243 275.785 100.159 275.031 99.9965C274.183 99.8342 273.434 99.5881 272.681 99.2635C268.639 102.206 265.074 104.41 261.969 105.797C258.87 107.185 256.142 107.923 253.608 107.923C252.106 107.923 250.886 107.598 250.132 106.944C249.284 106.373 248.912 105.473 248.912 104.248C248.912 103.023 249.477 101.714 250.603 100.164C251.729 98.6144 253.325 97.0595 255.299 95.5883C255.865 95.18 256.707 94.6093 257.65 93.8711C260.843 91.5833 262.346 90.1959 262.346 89.7876C262.346 89.6253 262.252 89.463 262.063 89.2954C261.875 89.1331 261.592 89.0494 261.309 89.0494C260.744 89.0494 259.807 89.374 258.399 89.9499C257.084 90.5205 255.582 91.3372 253.891 92.4C252.483 93.2167 250.98 94.2795 249.383 95.4208C247.692 96.5621 246.755 97.138 246.472 97.138C246.284 97.138 246.095 97.0542 246.001 96.8919C245.813 96.8082 245.719 96.6459 245.719 96.4836C245.719 96.0752 246.284 95.5046 247.315 94.6878C248.441 93.7874 249.943 92.8084 251.917 91.5833C254.545 89.9499 256.802 88.8033 258.87 87.9866C260.843 87.1699 262.534 86.7615 263.849 86.7615C264.88 86.7615 265.634 87.0076 266.199 87.4945C266.67 87.9866 266.953 88.6358 266.953 89.5363C266.953 91.4943 264.136 94.5988 258.498 98.6876L258.027 99.096C256.147 100.483 254.833 101.546 254.079 102.363C253.325 103.18 252.954 103.913 252.954 104.488C252.954 104.897 253.142 105.221 253.425 105.467C253.802 105.713 254.268 105.792 254.927 105.792C256.618 105.792 258.969 105.059 261.974 103.666C264.885 102.195 267.984 100.237 271.183 97.8657M272.775 96.5621C274.937 94.4365 276.439 92.8031 277.471 91.6618C278.408 90.4367 278.879 89.5363 278.879 88.9656C278.879 88.8033 278.785 88.7196 278.691 88.641C278.502 88.5573 278.408 88.5573 278.125 88.5573C276.811 88.5573 275.497 89.2117 274.178 90.5205C272.864 91.8293 272.204 93.2167 272.204 94.6041C272.204 94.8501 272.298 95.0962 272.393 95.4208C272.487 95.8292 272.581 96.1537 272.77 96.5621H272.775Z" fill="white"/>
<path d="M313.902 107.593C312.871 107.755 312.211 107.839 311.645 107.839C311.174 107.923 310.803 107.923 310.331 107.923C309.672 107.923 309.206 107.839 308.923 107.761C308.546 107.598 308.358 107.436 308.358 107.19C308.358 106.944 309.389 105.803 311.363 103.839C311.928 103.269 312.394 102.86 312.677 102.531L326.488 88.5627C323.2 90.4422 320.006 92.484 316.907 94.6095C313.808 96.8136 312.117 97.9601 311.928 97.9601C311.74 97.9601 311.645 97.8764 311.551 97.7141C311.457 97.6303 311.363 97.468 311.363 97.222C311.363 96.6513 313.054 95.2587 316.436 92.8923C319.818 90.5207 324.891 87.2539 331.561 83.1703L354.952 59.5589L355.046 59.4751C355.612 58.8207 356.266 58.5746 357.02 58.5746C357.863 58.5746 358.711 58.6584 359.371 58.8992C360.03 59.1453 360.308 59.3914 360.308 59.6322C360.308 59.7945 360.214 59.9568 360.119 60.1243C360.025 60.3704 359.837 60.6164 359.554 60.8573L329.21 91.573C331.838 89.9396 334 88.7145 335.974 87.8978C337.854 87.0811 339.545 86.6727 340.764 86.6727C342.079 86.6727 343.021 86.9973 343.77 87.5732C344.523 88.1439 344.895 88.9606 344.895 90.0234C344.895 91.0024 344.518 91.8191 343.77 92.4735C342.927 93.2064 341.984 93.5363 340.764 93.5363C340.199 93.5363 339.733 93.374 339.262 92.9656C338.885 92.5573 338.696 92.1489 338.696 91.5782C338.696 91.0861 338.885 90.5155 339.356 90.1071C339.827 89.615 340.482 89.1281 341.518 88.7198H341.141C339.922 88.7198 338.419 89.0443 336.822 89.6988C335.131 90.4317 333.063 91.5783 330.435 93.1279C331.843 93.5363 332.88 94.1069 333.534 94.8451C334.194 95.5781 334.566 96.4785 334.566 97.5413C334.566 98.6041 333.906 99.9914 332.498 101.463C331.089 102.934 330.43 104.159 330.43 104.975C330.43 105.222 330.524 105.468 330.807 105.546C330.995 105.708 331.372 105.792 331.744 105.792C333.058 105.792 335.032 105.222 337.66 104.075C340.288 102.85 343.016 101.379 346.021 99.4208C347.241 98.6041 348.555 97.7036 349.968 96.6408C351.376 95.5781 352.225 95.0912 352.507 95.0912C352.696 95.0912 352.884 95.1749 353.073 95.2535C353.167 95.4158 353.261 95.5781 353.261 95.8241C353.261 96.3162 351.57 97.7036 348.188 100.154L347.905 100.316C344.523 102.688 341.236 104.562 338.136 105.871C335.037 107.258 332.498 107.913 330.529 107.913C329.121 107.913 327.995 107.504 327.147 106.771C326.304 106.117 325.833 105.138 325.833 103.991C325.833 102.845 326.493 101.541 327.807 99.9077C329.121 98.2743 329.781 97.0492 329.781 96.3948C329.781 95.6618 329.592 95.1697 329.121 94.8399C328.556 94.4315 327.901 94.1855 326.959 94.1855C324.608 96.311 322.357 98.5151 320.195 100.719C317.938 103.007 315.876 105.295 313.902 107.583M284.312 104.813C284.5 105.384 284.877 105.792 285.532 106.038C286.191 106.284 287.034 106.447 288.16 106.447C291.165 106.447 293.515 105.059 295.206 102.201C296.897 99.3423 297.929 95.0912 298.212 89.4579C295.301 90.9291 292.573 92.5625 290.039 94.3582C287.505 96.2377 286.186 97.1382 285.903 97.1382C285.621 97.1382 285.526 97.0544 285.338 96.9759C285.244 96.8921 285.149 96.7298 285.149 96.5675C285.149 95.9969 286.369 94.8503 288.908 93.1384C291.442 91.4212 294.641 89.4632 298.677 87.3376C298.866 85.7827 299.431 84.5577 300.18 83.5786C301.023 82.6782 301.871 82.1913 302.902 82.1913C303.374 82.1913 303.745 82.3536 304.028 82.5996C304.405 82.8457 304.499 83.2541 304.499 83.7409C304.499 84.4739 304.217 85.2906 303.468 86.0288C302.808 86.8455 301.871 87.4999 300.745 87.992C301.405 88.8088 301.871 89.7878 302.154 90.8505C302.436 91.9918 302.625 93.2221 302.625 94.5257C302.625 96.7298 302.248 98.6093 301.405 100.243C300.651 101.876 299.431 103.264 297.929 104.248C301.876 102.86 305.442 101.059 308.824 98.6931C312.111 96.3215 313.897 95.0964 313.897 95.0964C314.085 95.0964 314.274 95.1802 314.462 95.3425C314.556 95.4262 314.651 95.5885 314.651 95.8346C314.651 96.2429 313.991 96.9759 312.677 98.0387C311.363 99.18 309.577 100.327 307.51 101.552C304.127 103.593 300.84 105.227 297.458 106.29C294.17 107.431 291.165 108.007 288.531 108.007C286.652 108.007 285.055 107.598 283.835 106.865C282.521 106.049 281.956 105.07 281.956 103.845C281.956 102.866 282.333 102.049 282.987 101.473C283.741 100.819 284.584 100.494 285.615 100.494C286.369 100.494 287.024 100.74 287.495 101.065C287.966 101.473 288.154 102.044 288.154 102.62C288.154 103.353 287.872 103.928 287.312 104.337C286.746 104.661 286.092 104.907 285.149 104.907H284.584C284.49 104.824 284.395 104.824 284.301 104.824" fill="white"/>
<path d="M374.609 83.5734C374.326 83.5734 374.043 83.4897 373.949 83.4112C373.855 83.3274 373.761 83.1651 373.761 83.0028C373.761 82.8405 374.792 82.1023 376.86 80.715C378.928 79.4061 380.619 77.935 381.933 76.1393C382.404 75.5686 382.87 74.5844 383.435 73.2808C384.467 70.9092 385.692 69.6841 387.194 69.6841C388.037 69.6841 388.791 69.9301 389.262 70.3385C389.734 70.7469 390.016 71.4013 390.016 72.1342C390.016 73.3593 389.357 74.6681 388.043 76.0555C386.728 77.4429 384.755 78.8355 382.032 80.3851C380.247 81.4479 378.65 82.1808 377.43 82.7567C376.116 83.3274 375.174 83.5734 374.614 83.5734M361.457 103.264C359.578 104.818 357.887 106.044 356.384 106.776C354.788 107.593 353.379 108.002 352.16 108.002C350.845 108.002 349.903 107.593 349.154 106.776C348.495 105.96 348.123 104.735 348.123 103.264C348.123 101.468 348.594 99.7507 349.626 98.1172C350.563 96.4838 352.07 94.9289 354.133 93.3792C356.761 91.3375 359.583 89.704 362.683 88.479C365.688 87.2539 368.321 86.6832 370.666 86.6832C371.981 86.6832 372.923 86.9293 373.577 87.3377C374.143 87.746 374.514 88.479 374.609 89.4632C375.08 88.9711 375.546 88.5627 376.111 88.1544C376.677 87.746 377.331 87.3377 377.991 87.0131C378.273 87.0131 378.65 87.0131 379.116 86.9293H380.053C381.179 86.9293 381.933 87.0131 382.404 87.1754C382.875 87.2591 383.064 87.5 383.064 87.9083C383.064 88.2329 382.404 88.8873 380.996 90.0339C380.148 90.6045 379.587 91.0129 379.116 91.4212C374.98 94.7719 371.787 97.6303 369.441 100.002C367.185 102.452 365.965 104.007 365.965 104.902C365.965 105.227 366.059 105.473 366.248 105.557C366.436 105.719 366.719 105.803 367.185 105.803C368.499 105.803 370.473 105.232 373.195 104.086C375.823 102.944 378.551 101.473 381.462 99.5098C382.682 98.6931 383.996 97.7926 385.409 96.7299C386.817 95.6671 387.666 95.0964 387.943 95.0964C388.221 95.0964 388.32 95.1802 388.508 95.3425C388.603 95.4263 388.697 95.5886 388.697 95.8346C388.697 96.3267 387.006 97.7141 383.53 100.164L383.341 100.327C379.959 102.698 376.671 104.572 373.572 105.881C370.473 107.269 367.934 107.923 365.965 107.923C364.557 107.923 363.431 107.598 362.583 106.86C361.74 106.206 361.363 105.305 361.363 104.164V103.593C361.363 103.51 361.457 103.347 361.457 103.269V103.264ZM361.081 101.63L371.604 91.8243C372.075 91.416 372.357 91.0914 372.541 90.683C372.823 90.3585 372.918 90.0286 372.918 89.704C372.918 89.3794 372.823 89.2119 372.635 89.0496C372.352 88.8873 372.069 88.8036 371.698 88.8036C370.666 88.8036 369.347 89.2119 367.656 89.9449C365.965 90.6778 364.18 91.7406 362.395 93.0494C359.484 95.0912 357.133 97.2953 355.159 99.5831C353.28 101.871 352.343 103.588 352.343 104.651C352.343 104.976 352.437 105.305 352.72 105.551C353.002 105.797 353.379 105.876 353.751 105.876C354.594 105.876 355.631 105.468 356.945 104.735C358.259 104.002 359.667 102.939 361.081 101.63Z" fill="white"/>
<path d="M205.267 158.25C209.838 157.412 213.675 156.025 216.79 154.167C219.906 152.308 221.46 150.549 221.46 148.879C221.46 148.324 221.356 147.858 221.152 147.675C220.837 147.397 220.424 147.303 219.906 147.303C218.246 147.303 216.167 148.23 213.675 150.088C211.183 151.947 208.383 154.638 205.267 158.255M203.812 160.941C203.498 161.496 203.294 162.056 203.084 162.611C202.98 163.166 202.875 163.632 202.875 164.098C202.875 165.025 203.189 165.768 203.912 166.323C204.639 166.878 205.571 167.161 206.817 167.161C208.896 167.161 211.487 166.417 214.602 165.025C217.717 163.632 220.937 161.685 224.466 159.083C225.397 158.433 226.544 157.507 227.79 156.486C229.141 155.371 229.968 154.816 230.282 154.816C230.491 154.816 230.696 154.91 230.905 154.999C231.01 155.182 231.114 155.371 231.114 155.648C231.114 156.02 230.701 156.575 229.764 157.412C228.832 158.25 227.272 159.454 224.989 161.219C221.665 163.815 218.241 165.768 214.916 167.25C211.492 168.642 208.581 169.386 205.985 169.386C203.597 169.386 201.624 168.737 200.168 167.344C198.713 166.046 197.99 164.281 197.99 161.962C197.99 159.92 198.718 157.878 200.168 155.837C201.624 153.795 203.697 151.847 206.503 149.989C208.995 148.413 211.278 147.204 213.356 146.46C215.534 145.622 217.508 145.256 219.272 145.256C220.932 145.256 222.073 145.439 222.696 145.905C223.424 146.46 223.733 147.204 223.733 148.413C223.733 150.732 221.864 153.146 218.021 155.653C214.178 158.161 209.403 159.92 203.796 160.941H203.812ZM154.909 173.098L136.219 194.908C135.805 195.002 135.281 195.091 134.868 195.185C134.35 195.28 133.727 195.28 133.104 195.28C132.172 195.28 131.444 195.185 131.025 195.096C130.612 195.002 130.402 194.819 130.402 194.542C130.402 193.892 132.894 190.735 137.773 185.076C142.653 179.417 152.935 167.998 168.405 150.921L160.62 156.397C160.207 156.674 159.893 156.952 159.683 157.046C159.474 157.14 159.27 157.14 159.06 157.14C158.851 157.14 158.647 157.046 158.437 156.863C158.228 156.769 158.123 156.585 158.123 156.397C158.123 155.931 159.992 154.538 163.626 151.942C167.364 149.434 170.583 147.02 173.489 144.795C174.84 143.774 176.499 142.382 178.578 140.712C182.211 137.649 184.703 136.162 185.949 136.162C186.467 136.162 186.782 136.162 186.986 136.345C187.195 136.44 187.399 136.529 187.399 136.811C187.399 137.183 185.844 138.853 182.934 142.01C180.028 145.073 177.431 148.23 174.939 151.387C178.054 149.439 180.756 147.952 183.248 146.931C185.635 145.816 187.609 145.355 189.064 145.355C190.205 145.355 191.038 145.633 191.661 146.193C192.284 146.748 192.598 147.586 192.598 148.607C192.598 149.628 192.184 150.743 191.352 151.947C190.52 153.062 188.755 154.732 186.059 157.051C185.331 157.7 184.295 158.538 182.944 159.559C178.897 162.993 176.819 165.129 176.819 165.868C176.819 166.145 177.028 166.423 177.232 166.705C177.546 166.888 177.96 166.983 178.478 166.983C179.934 166.983 182.112 166.334 185.017 165.035C187.818 163.737 190.933 162.067 194.153 159.836C195.504 158.91 196.954 157.889 198.514 156.68C200.069 155.475 201.006 154.821 201.315 154.821C201.524 154.821 201.728 154.915 201.938 155.098C202.043 155.193 202.147 155.376 202.147 155.653C202.147 156.208 200.278 157.878 196.435 160.575L196.226 160.758C192.593 163.355 189.064 165.491 185.53 167.072C182.106 168.559 179.405 169.391 177.536 169.391C176.08 169.391 174.834 169.019 173.903 168.276C172.971 167.532 172.447 166.512 172.447 165.307C172.447 163.915 172.965 162.428 174.002 160.852C175.039 159.365 176.908 157.512 179.4 155.376C180.646 154.355 182.305 153.057 184.279 151.664C186.253 150.271 187.185 149.345 187.185 148.879C187.185 148.601 187.08 148.413 186.871 148.23C186.661 148.135 186.457 148.046 186.038 148.046C185.619 148.046 184.897 148.23 183.86 148.696C182.824 149.251 181.368 149.9 179.604 150.921C175.656 153.146 171.819 155.842 168.285 158.905C164.756 161.967 160.291 166.7 154.893 173.103" fill="white"/>
<path d="M230.271 169.014C229.13 169.197 228.402 169.292 227.779 169.292C227.261 169.386 226.842 169.386 226.324 169.386C225.596 169.386 225.078 169.292 224.769 169.203C224.355 169.019 224.146 168.831 224.146 168.553C224.146 168.276 225.287 166.978 227.47 164.747C228.093 164.098 228.612 163.632 228.926 163.26L244.187 147.392C240.554 149.528 237.025 151.847 233.596 154.261C230.172 156.769 228.303 158.067 228.093 158.067C227.884 158.067 227.779 157.973 227.68 157.79C227.575 157.695 227.47 157.512 227.47 157.235C227.47 156.585 229.339 155.01 233.077 152.313C236.816 149.622 242.423 145.911 249.794 141.267L275.646 114.446L275.751 114.352C276.374 113.608 277.101 113.331 277.929 113.331C278.861 113.331 279.798 113.425 280.525 113.703C281.253 113.98 281.562 114.258 281.562 114.54C281.562 114.724 281.457 114.912 281.353 115.095C281.248 115.373 281.038 115.65 280.73 115.933L247.192 150.832C250.098 148.973 252.485 147.581 254.668 146.654C256.746 145.727 258.615 145.261 259.961 145.261C261.416 145.261 262.453 145.633 263.285 146.282C264.118 146.931 264.531 147.858 264.531 149.067C264.531 150.183 264.118 151.109 263.285 151.853C262.354 152.69 261.312 153.057 259.961 153.057C259.338 153.057 258.82 152.874 258.301 152.408C257.888 151.942 257.678 151.481 257.678 150.832C257.678 150.277 257.888 149.628 258.406 149.162C258.924 148.607 259.652 148.047 260.793 147.586H260.38C259.029 147.586 257.369 147.958 255.605 148.701C253.736 149.539 251.454 150.837 248.543 152.601C250.103 153.067 251.244 153.716 251.967 154.549C252.694 155.387 253.108 156.407 253.108 157.612C253.108 158.816 252.38 160.397 250.825 162.067C249.27 163.737 248.543 165.129 248.543 166.056C248.543 166.334 248.647 166.611 248.956 166.705C249.166 166.889 249.579 166.983 249.993 166.983C251.448 166.983 253.626 166.334 256.532 165.035C259.437 163.643 262.448 161.973 265.772 159.748C267.123 158.821 268.573 157.8 270.133 156.591C271.688 155.387 272.625 154.826 272.934 154.826C273.144 154.826 273.348 154.921 273.557 155.01C273.662 155.193 273.767 155.381 273.767 155.659C273.767 156.214 271.898 157.795 268.16 160.58L267.845 160.763C264.107 163.454 260.474 165.59 257.045 167.077C253.616 168.653 250.815 169.396 248.637 169.396C247.082 169.396 245.836 168.93 244.899 168.098C243.962 167.355 243.443 166.239 243.443 164.941C243.443 163.643 244.171 162.156 245.621 160.303C247.077 158.444 247.799 157.057 247.799 156.313C247.799 155.476 247.59 154.921 247.072 154.549C246.449 154.083 245.721 153.805 244.684 153.805C242.088 156.219 239.595 158.727 237.208 161.229C234.716 163.826 232.434 166.428 230.25 169.025" fill="white"/>
<path d="M337.961 147.02C338.066 146.926 338.17 146.837 338.479 146.837C338.788 146.743 338.997 146.654 339.312 146.654C340.243 146.654 341.076 146.748 341.699 146.931C342.427 147.115 342.735 147.397 342.735 147.581C342.735 147.675 342.427 148.047 341.804 148.696C341.181 149.251 340.662 149.811 340.249 150.272C339.003 151.664 338.071 153.151 337.448 154.449C336.72 155.842 336.411 157.046 336.411 158.161C336.411 158.905 336.621 159.554 337.139 160.02C337.553 160.486 338.176 160.763 339.008 160.763C339.84 160.763 340.772 160.486 341.709 160.114C342.746 159.648 343.887 158.816 345.343 157.795C345.966 157.329 346.693 156.68 347.625 156.03C348.662 155.104 349.39 154.638 349.704 154.638C350.018 154.638 350.222 154.732 350.327 154.821C350.431 155.004 350.536 155.193 350.536 155.47C350.536 155.748 350.327 156.025 350.018 156.491C349.604 156.863 348.877 157.512 347.631 158.439C345.243 160.203 343.269 161.407 341.814 162.056C340.359 162.706 339.013 163.077 337.662 163.077C335.898 163.077 334.547 162.611 333.616 161.685C332.678 160.664 332.16 159.365 332.16 157.695C332.16 157.046 332.265 156.397 332.474 155.559C332.684 154.816 332.888 153.983 333.202 153.052C330.192 155.559 327.286 158.156 324.585 160.847C321.784 163.538 319.292 166.229 317.004 169.014C316.171 169.108 315.344 169.197 314.616 169.292C313.784 169.386 313.161 169.386 312.538 169.386C311.915 169.386 311.397 169.292 310.983 169.203C310.674 169.108 310.465 168.925 310.465 168.737C310.465 168.365 311.501 167.161 313.37 165.302C314.616 164.098 315.548 163.166 316.276 162.423C320.119 158.434 322.611 155.648 323.962 153.884C325.312 152.12 325.935 150.727 325.935 149.895C325.935 149.617 325.935 149.429 325.831 149.34C325.726 149.156 325.621 149.156 325.417 149.156C324.585 149.156 323.443 149.528 321.993 150.177C320.642 150.921 318.773 152.036 316.491 153.612C315.868 154.078 315.035 154.727 313.999 155.559C312.857 156.58 312.025 157.046 311.611 157.046C311.402 157.046 311.198 156.952 310.988 156.769C310.779 156.585 310.679 156.397 310.679 156.214C310.679 155.842 310.988 155.376 311.716 154.727C312.444 154.078 313.69 153.057 315.454 151.758C318.051 149.811 320.543 148.23 322.93 147.026C325.422 145.822 327.187 145.261 328.433 145.261C329.364 145.261 330.092 145.539 330.61 146.005C331.233 146.56 331.443 147.303 331.443 148.23C331.443 148.879 331.338 149.622 331.029 150.455C330.82 151.381 330.406 152.313 329.783 153.423L337.987 147.02H337.961ZM297.366 141.728C297.057 141.728 296.743 141.633 296.638 141.544C296.534 141.45 296.429 141.267 296.429 141.078C296.429 140.89 297.57 140.057 299.853 138.482C302.135 136.995 304.004 135.325 305.46 133.283C305.978 132.634 306.496 131.519 307.119 130.037C308.261 127.346 309.611 125.953 311.271 125.953C312.203 125.953 313.035 126.231 313.554 126.697C314.072 127.163 314.386 127.901 314.386 128.739C314.386 130.131 313.658 131.618 312.208 133.194C310.753 134.77 308.575 136.351 305.565 138.115C303.591 139.319 301.827 140.157 300.476 140.806C299.02 141.455 297.984 141.733 297.361 141.733M282.827 164.098C280.749 165.862 278.88 167.255 277.22 168.087C275.456 169.014 273.896 169.48 272.55 169.48C271.095 169.48 270.058 169.014 269.226 168.087C268.498 167.161 268.085 165.768 268.085 164.098C268.085 162.056 268.603 160.109 269.744 158.25C270.781 156.392 272.446 154.633 274.728 152.868C277.634 150.549 280.749 148.691 284.178 147.298C287.503 145.905 290.408 145.256 293.005 145.256C294.46 145.256 295.497 145.534 296.225 146C296.848 146.466 297.261 147.298 297.366 148.413C297.884 147.858 298.403 147.392 299.026 146.926C299.649 146.46 300.376 146 301.104 145.628C301.418 145.628 301.832 145.628 302.35 145.534H303.387C304.633 145.534 305.465 145.628 305.983 145.811C306.502 145.905 306.711 146.183 306.711 146.649C306.711 147.02 305.983 147.764 304.428 149.062C303.491 149.711 302.874 150.177 302.35 150.638C297.78 154.444 294.251 157.69 291.654 160.381C289.162 163.166 287.811 164.931 287.811 165.951C287.811 166.323 287.916 166.601 288.126 166.695C288.335 166.878 288.644 166.972 289.162 166.972C290.618 166.972 292.796 166.323 295.806 165.025C298.711 163.726 301.722 162.056 304.942 159.826C306.292 158.899 307.742 157.879 309.303 156.669C310.857 155.465 311.795 154.811 312.103 154.811C312.412 154.811 312.517 154.905 312.727 155.088C312.831 155.182 312.936 155.366 312.936 155.643C312.936 156.198 311.067 157.779 307.224 160.564L307.015 160.748C303.277 163.438 299.643 165.575 296.214 167.061C292.79 168.637 289.984 169.381 287.806 169.381C286.251 169.381 285.005 169.009 284.068 168.176C283.136 167.433 282.718 166.412 282.718 165.114V164.465C282.718 164.37 282.822 164.187 282.822 164.093L282.827 164.098ZM282.414 162.24L294.042 151.104C294.56 150.638 294.874 150.266 295.078 149.806C295.392 149.434 295.492 149.062 295.492 148.691C295.492 148.319 295.387 148.136 295.183 147.947C294.869 147.764 294.56 147.67 294.146 147.67C293.005 147.67 291.55 148.136 289.681 148.968C287.811 149.806 285.838 151.01 283.864 152.497C280.644 154.816 278.048 157.324 275.87 159.92C273.791 162.517 272.755 164.47 272.755 165.674C272.755 166.046 272.859 166.417 273.168 166.695C273.477 166.972 273.896 167.067 274.31 167.067C275.241 167.067 276.388 166.601 277.838 165.768C279.294 164.931 280.848 163.726 282.409 162.24H282.414Z" fill="white"/>
<path d="M353.516 158.25C358.087 157.413 361.924 156.025 365.039 154.167C368.154 152.308 369.709 150.549 369.709 148.879C369.709 148.324 369.604 147.858 369.4 147.675C369.086 147.397 368.672 147.303 368.154 147.303C366.495 147.303 364.416 148.23 361.924 150.088C359.432 151.947 356.631 154.638 353.516 158.255M352.061 160.941C351.747 161.496 351.542 162.056 351.333 162.611C351.228 163.166 351.124 163.632 351.124 164.098C351.124 165.025 351.432 165.768 352.16 166.323C352.888 166.878 353.82 167.161 355.066 167.161C357.144 167.161 359.736 166.417 362.851 165.025C365.966 163.632 369.186 161.685 372.714 159.083C373.646 158.433 374.793 157.507 376.039 156.486C377.389 155.371 378.217 154.816 378.531 154.816C378.74 154.816 378.944 154.91 379.154 154.999C379.258 155.182 379.363 155.371 379.363 155.648C379.363 156.02 378.949 156.575 378.012 157.413C377.075 158.25 375.52 159.454 373.238 161.219C369.913 163.815 366.489 165.768 363.165 167.25C359.741 168.642 356.83 169.386 354.233 169.386C351.846 169.386 349.872 168.737 348.417 167.344C346.962 166.046 346.239 164.281 346.239 161.962C346.239 159.92 346.967 157.878 348.417 155.837C349.872 153.795 351.946 151.847 354.752 149.989C357.244 148.413 359.526 147.204 361.605 146.46C363.783 145.623 365.756 145.256 367.521 145.256C369.18 145.256 370.322 145.439 370.945 145.905C371.672 146.46 371.981 147.204 371.981 148.413C371.981 150.732 370.112 153.146 366.269 155.653C362.427 158.161 357.652 159.92 352.045 160.941H352.061Z" fill="white"/>
<path d="M378.628 169.014C378.314 169.108 377.9 169.197 377.487 169.197C376.969 169.292 376.241 169.291 375.099 169.291C373.958 169.291 373.126 169.292 372.817 169.197C372.403 169.103 372.194 168.92 372.194 168.642C372.194 168.087 373.649 166.601 376.66 164.187C378.633 162.517 380.293 161.124 381.539 160.009L382.785 158.988C389.638 153.046 392.962 149.706 392.962 148.779C392.962 148.502 392.858 148.313 392.753 148.224C392.648 148.13 392.544 148.041 392.444 148.041C391.512 148.041 390.266 148.413 388.811 149.245C387.355 150.083 385.282 151.47 382.581 153.606C381.958 154.072 381.125 154.722 380.193 155.554C378.947 156.575 378.115 157.13 377.701 157.13C377.492 157.13 377.288 157.036 377.078 156.947C376.869 156.763 376.764 156.575 376.764 156.392C376.764 155.926 378.01 154.816 380.398 152.863C380.916 152.491 381.23 152.12 381.539 151.936C384.34 149.711 386.832 148.036 389.015 146.926C391.093 145.811 392.962 145.256 394.413 145.256C395.449 145.256 396.282 145.534 396.905 146.183C397.528 146.832 397.737 147.759 397.737 149.062V149.806C397.632 150.177 397.632 150.549 397.528 151.198C400.952 149.062 403.653 147.581 405.731 146.649C407.705 145.811 409.47 145.35 410.925 145.35C412.066 145.35 412.899 145.628 413.522 146.188C414.145 146.743 414.454 147.581 414.454 148.601C414.454 149.622 414.04 150.737 413.208 151.942C412.375 153.057 410.611 154.727 407.915 157.046C407.187 157.695 406.15 158.533 404.904 159.554C400.753 162.988 398.674 165.124 398.674 165.862C398.674 166.14 398.884 166.417 399.088 166.7C399.397 166.883 399.816 166.977 400.334 166.977C401.889 166.977 403.967 166.328 406.873 165.03C409.778 163.732 412.789 162.061 416.008 159.831C417.464 158.905 418.914 157.884 420.474 156.674C422.029 155.47 422.966 154.816 423.275 154.816C423.485 154.816 423.689 154.91 423.793 154.999C423.898 155.182 424.003 155.371 424.003 155.648C424.003 156.203 422.134 157.784 418.396 160.569L418.186 160.753C414.448 163.349 410.815 165.485 407.386 167.066C403.962 168.553 401.365 169.386 399.496 169.386C398.041 169.386 396.795 169.014 395.863 168.271C394.931 167.527 394.407 166.506 394.407 165.302C394.407 163.815 395.03 162.239 396.276 160.569C397.522 158.805 399.287 157.041 401.569 155.282C402.402 154.727 403.334 153.983 404.684 152.962C407.799 150.643 409.354 149.251 409.354 148.785C409.354 148.601 409.25 148.413 409.045 148.23C408.731 148.135 408.527 148.046 408.108 148.046C406.239 148.046 402.501 149.994 396.894 153.894C391.287 157.795 385.162 162.899 378.623 169.024" fill="white"/>
<path d="M228.693 71.3491C228.41 71.3491 228.127 71.2654 228.033 71.1868C227.939 71.1031 227.845 70.9408 227.845 70.7785C227.845 70.6162 228.876 69.878 230.944 68.4906C233.012 67.1818 234.703 65.7107 236.017 63.915C236.488 63.3443 236.954 62.3653 237.52 61.0565C238.551 58.6848 239.776 57.4598 241.279 57.4598C242.121 57.4598 242.875 57.7058 243.347 58.1142C243.818 58.5226 244.1 59.177 244.1 59.9099C244.1 61.135 243.441 62.4438 242.127 63.8312C240.813 65.2186 238.839 66.6112 236.117 68.1608C234.331 69.2236 232.735 69.9565 231.515 70.5324C230.201 71.1031 229.258 71.3491 228.698 71.3491" fill="white"/>
</g>
<defs>
<clipPath id="clip0_6_44858">
<rect width="424" height="174.08" fill="white" transform="translate(0 21.2)"/>
</clipPath>
</defs>
</svg>
