<svg width="404" height="202" viewBox="0 0 404 202" fill="none" xmlns="http://www.w3.org/2000/svg">
<g clip-path="url(#clip0_245_2718)">
<g clip-path="url(#clip1_245_2718)">
<path d="M386.112 130.877L396.468 125.39C398.059 124.507 399.301 123.973 400.009 123.619C400.808 123.354 401.336 123.175 401.601 123.175C402.045 123.175 402.309 123.175 402.484 123.349C402.573 123.439 402.658 123.614 402.658 123.968C402.658 124.502 401.775 125.295 400.004 126.357C399.476 126.712 399.032 126.886 398.767 127.066C395.58 129.101 392.482 131.226 389.474 133.441C386.551 135.656 384.959 136.718 384.78 136.718C384.515 136.718 384.336 136.629 384.071 136.364C383.897 136.19 383.717 135.92 383.628 135.656L380.62 125.036C380.53 124.771 380.53 124.592 380.53 124.417C380.44 124.242 380.44 124.063 380.44 123.973C380.44 123.619 380.53 123.444 380.615 123.265C380.704 123.09 380.879 123 381.143 123C382.026 123 383.443 125.215 385.483 129.55L386.102 130.877H386.112Z" fill="#D32B25"/>
<path d="M93.3164 62.935C92.1092 62.1169 91.0317 61.4186 89.8245 61.0644C88.752 60.7152 87.5398 60.4807 86.3326 60.4807C85.6592 60.4807 85.1254 60.5955 84.5867 60.8299C84.1826 61.0644 83.9133 61.4136 83.9133 61.7628C83.9133 62.3464 84.3173 62.6956 84.9858 63.0448C85.6592 63.394 86.597 63.5137 87.8042 63.5137C88.8767 63.5137 89.8195 63.5137 90.6227 63.3989C91.5605 63.2842 92.5033 63.1645 93.3064 62.93M95.0623 64.686C93.8551 65.0351 92.7776 65.2696 91.5704 65.5041C90.4979 65.6188 89.2858 65.7385 88.0786 65.7385C85.9286 65.7385 84.1826 65.3893 82.9754 64.686C81.7683 63.9876 81.0948 63.0498 81.0948 61.8825C81.0948 60.7152 81.6336 59.7824 82.5714 59.079C83.5092 58.4954 84.8561 58.1462 86.597 58.1462C88.338 58.1462 90.0889 58.4954 91.7001 59.079C93.4461 59.6626 94.9227 60.5955 96.2645 61.8825C102.575 60.0118 111.035 54.2951 121.775 44.9519C127.282 40.0483 131.712 36.4267 134.935 33.9774C140.571 29.7722 145.809 26.3901 150.643 23.9358C155.611 21.4815 159.373 20.1995 161.787 20.1995C162.326 20.1995 162.86 20.3142 163.129 20.4339C163.533 20.6684 163.668 20.9028 163.668 21.252C163.668 21.8357 162.326 22.6538 159.772 23.4718C157.088 24.2899 154.938 25.3425 153.057 26.3901C150.508 27.9065 146.208 31.2936 140.033 36.5464C136.137 39.9335 132.914 42.6173 130.635 44.4879C123.252 50.4441 117.206 54.764 112.507 57.5675C107.673 60.371 102.705 62.5908 97.7361 64.222C98.0055 65.1549 98.2748 65.973 98.4095 66.7911C98.5442 67.6092 98.5442 68.3075 98.5442 69.0109C98.5442 71.2307 97.8708 73.4456 96.5289 75.7851C95.187 78.1247 92.7677 81.1576 89.2808 84.8939C87.9389 86.2957 86.0583 88.0466 83.6439 90.1467C79.748 93.4141 77.8723 95.8684 77.8723 97.5046C77.8723 98.5571 78.4111 99.49 79.2142 100.074C80.152 100.772 81.3642 101.126 82.8408 101.126C85.2551 101.126 88.2133 100.428 91.5704 99.0261C95.0623 97.744 98.9533 95.6389 103.388 92.9552C106.072 91.319 108.76 89.5681 111.31 87.5827C113.993 85.5973 115.47 84.6645 115.739 84.6645C116.143 84.6645 116.278 84.7792 116.542 84.8989C116.677 85.1334 116.812 85.3678 116.812 85.717C116.812 86.3007 116.009 87.2335 114.128 88.6352C112.382 90.037 109.833 91.7879 106.61 93.888C101.507 97.1554 96.9429 99.6097 93.047 101.246C89.1511 102.762 85.6642 103.58 82.5764 103.58C79.8926 103.58 77.7426 102.882 76.1314 101.48C74.3854 100.079 73.5823 98.2129 73.5823 95.8734C73.5823 93.5338 74.3854 91.319 75.867 88.6352C77.3436 86.0662 79.6282 83.4972 82.312 80.9282C83.6539 79.7609 85.3998 78.1247 87.6845 76.1393C92.7876 71.7046 95.3367 68.552 95.3367 66.5666C95.3367 66.2174 95.3367 65.6337 95.202 64.9304C95.202 64.8157 95.0673 64.6959 95.0673 64.6959L95.0623 64.686ZM84.8611 44.4879C82.1773 46.0044 79.6232 47.2914 77.3436 47.9898C74.9292 48.8079 72.7792 49.1571 70.6292 49.1571C68.0801 49.1571 66.0648 48.6882 64.7229 47.6406C63.2464 46.5881 62.5729 45.1863 62.5729 43.3207C62.5729 40.7516 65.3914 37.7137 70.7639 34.0971C71.567 33.6282 72.1057 33.279 72.5098 33.0446C74.2557 31.992 75.4629 31.0592 76.1364 30.3608C76.8098 29.6624 77.0742 28.8443 77.0742 28.2607C77.0742 27.6771 76.8048 27.3279 76.4007 27.0934C75.862 26.7442 75.1936 26.6245 74.2507 26.6245C71.2976 26.6245 67.5364 27.5573 63.1067 29.428C58.677 31.2986 54.2473 33.7479 49.9473 36.9006C49.0095 37.599 47.6626 38.6515 46.3207 39.9385C44.8442 41.3403 43.7717 42.0386 43.2329 42.0386C43.0982 42.0386 42.8289 41.9239 42.5595 41.6895C42.2901 41.5747 42.1554 41.3403 42.1554 41.1058C42.1554 40.4074 42.8289 39.3549 44.036 38.1876C45.3779 36.9056 47.1239 35.5039 49.5432 33.9824C54.2423 30.8297 58.8067 28.3754 63.6404 26.5098C68.3395 24.7589 72.3701 23.826 75.5926 23.826C78.1417 23.826 80.157 24.2949 81.4989 25.2278C82.8408 26.1606 83.5142 27.5623 83.5142 29.433C83.5142 30.4855 83.2448 31.5331 82.4417 32.5856C81.7683 33.6382 80.6958 34.6858 79.2192 35.7383C78.4161 36.3219 77.2039 37.0203 75.7273 38.0729C71.0283 41.1108 68.6089 43.4454 68.6089 45.0766C68.6089 45.4258 68.8783 45.775 69.412 46.0094C69.9508 46.2439 70.6192 46.3586 71.562 46.3586C73.9764 46.3586 76.7998 45.5405 80.2917 43.7896C83.7836 42.0386 89.8245 38.3023 98.1501 32.6954C100.699 30.9445 103.523 28.8443 106.745 26.3901C109.833 23.9358 111.714 22.7685 112.382 22.7685C112.786 22.7685 113.185 22.7685 113.32 23.0029C113.589 23.1177 113.724 23.3521 113.724 23.5866C113.724 24.0555 111.04 26.7392 105.533 31.5281C100.026 36.4317 95.0623 41.3353 90.493 46.3586C86.3326 51.0277 80.5561 57.802 73.3079 66.6763C66.1895 75.5507 60.822 81.5068 57.4648 84.6595C50.7504 90.9648 44.036 95.7537 37.591 98.9063C31.0114 101.944 24.701 103.575 18.3907 103.575C13.2876 103.575 8.8579 102.293 5.23134 99.6047C1.73947 97.0357 -0.00646973 93.7683 -0.00646973 90.032C-0.00646973 87.6974 0.796661 85.8268 2.27821 84.425C3.75478 82.9086 5.6354 82.2052 8.04978 82.2052C9.79572 82.2052 11.2723 82.6741 12.3448 83.6069C13.4173 84.425 13.956 85.707 13.956 87.2285C13.956 88.6302 13.4173 89.6828 12.3448 90.4959C11.2723 91.309 9.92542 91.7829 8.04978 91.7829C7.78041 91.7829 7.24665 91.6682 6.57322 91.5484C5.89979 91.4337 5.36603 91.314 4.96197 91.314C4.55791 91.4287 4.42322 91.5484 4.28854 91.6632C4.15385 91.7779 4.15385 92.1321 4.15385 92.4813C4.15385 94.3519 5.49573 96.2176 8.17948 97.9685C10.8632 99.7194 13.8164 100.538 17.0389 100.538C20.2614 100.538 23.8879 99.485 27.6442 97.4996C31.5401 95.3995 36.6383 91.6632 42.9486 86.2907C46.5751 83.2528 52.8855 76.9474 62.1489 67.3747C71.4124 57.802 78.9299 50.2096 84.8411 44.4879H84.8611Z" fill="#D32B25"/>
<path d="M136.212 84.0707C136.302 83.9909 136.392 83.9161 136.661 83.9161C136.93 83.8362 137.11 83.7614 137.379 83.7614C138.182 83.7614 138.901 83.8412 139.439 83.9959C140.068 84.1505 140.332 84.385 140.332 84.5396C140.332 84.6194 140.063 84.9287 139.529 85.4724C138.99 85.9413 138.546 86.4053 138.187 86.7944C137.115 87.9616 136.307 89.2087 135.773 90.2962C135.144 91.4635 134.88 92.4761 134.88 93.409C134.88 94.0325 135.06 94.5763 135.509 94.9654C135.868 95.3544 136.401 95.5889 137.12 95.5889C137.838 95.5889 138.641 95.3544 139.449 95.0452C140.342 94.6561 141.33 93.9577 142.582 93.0997C143.121 92.7106 143.744 92.1669 144.553 91.6231C145.445 90.8449 146.074 90.4558 146.343 90.4558C146.613 90.4558 146.792 90.5357 146.882 90.6105C146.972 90.7651 147.062 90.9198 147.062 91.1542C147.062 91.3887 146.882 91.6231 146.613 92.0122C146.254 92.3215 145.63 92.8702 144.553 93.6484C142.492 95.13 140.791 96.1376 139.539 96.6863C138.287 97.2301 137.12 97.5443 135.958 97.5443C134.436 97.5443 133.274 97.1553 132.466 96.3771C131.663 95.5191 131.214 94.4316 131.214 93.0299C131.214 92.4861 131.303 91.9424 131.483 91.239C131.663 90.6155 131.842 89.9171 132.111 89.1389C129.518 91.239 127.008 93.4189 124.684 95.6787C122.264 97.9384 120.119 100.193 118.149 102.528C117.431 102.608 116.717 102.682 116.089 102.762C115.37 102.842 114.837 102.842 114.298 102.842C113.759 102.842 113.315 102.762 112.956 102.687C112.687 102.608 112.507 102.453 112.507 102.298C112.507 101.989 113.4 100.976 115.011 99.42C116.084 98.4073 116.892 97.6292 117.515 97.0056C120.828 93.6584 122.978 91.3238 124.14 89.8423C125.302 88.3657 125.841 87.1934 125.841 86.4951C125.841 86.2606 125.841 86.106 125.751 86.0262C125.661 85.8715 125.572 85.8715 125.392 85.8715C124.674 85.8715 123.691 86.1808 122.439 86.7295C121.277 87.3531 119.665 88.2859 117.695 89.6078C117.156 89.9969 116.443 90.5406 115.545 91.244C114.562 92.102 113.844 92.4911 113.485 92.4911C113.305 92.4911 113.126 92.4113 112.946 92.2566C112.766 92.102 112.677 91.9474 112.677 91.7877C112.677 91.4785 112.946 91.0894 113.57 90.5406C114.198 89.9969 115.271 89.1389 116.792 88.0514C119.032 86.4152 121.177 85.0933 123.237 84.0807C125.387 83.068 126.909 82.5991 127.981 82.5991C128.784 82.5991 129.413 82.8336 129.862 83.2227C130.4 83.6916 130.58 84.3101 130.58 85.0933C130.58 85.6371 130.49 86.2606 130.221 86.964C130.041 87.7422 129.682 88.5203 129.148 89.4532L136.222 84.0807L136.212 84.0707Z" fill="#D32B25"/>
<path d="M187.673 86.8694C185.792 88.0367 183.732 89.4384 181.677 90.9948C179.616 92.5512 178.364 93.3294 178.095 93.3294C177.915 93.3294 177.826 93.2495 177.736 93.1747C177.646 93.0201 177.556 92.8654 177.556 92.631C177.556 92.2419 178.629 91.2292 180.869 89.593C183.019 88.0367 186.595 85.6223 191.698 82.3549L217.927 56.7445C218.286 56.3554 218.646 56.1209 218.91 55.9663C219.269 55.8865 219.628 55.8116 220.072 55.8116C220.875 55.8116 221.594 55.8915 222.132 56.1209C222.671 56.2756 222.936 56.51 222.936 56.8193C222.936 57.0538 222.936 57.2084 222.756 57.363C222.666 57.5177 222.487 57.7521 222.128 58.0614L191.783 88.8897C189.543 91.1494 187.932 93.0949 186.77 94.8857C185.607 96.6766 184.979 98.0783 184.979 99.0909C184.979 99.7145 185.159 100.178 185.338 100.493C185.607 100.727 186.056 100.882 186.68 100.882C188.022 100.882 189.633 100.493 191.514 99.7145C193.394 99.0161 195.629 97.769 198.318 96.1328C200.019 95.0454 201.81 93.8731 203.601 92.5512C205.391 91.2292 206.374 90.6057 206.554 90.6057C206.823 90.6057 206.913 90.6855 207.092 90.7603C207.182 90.915 207.272 91.0696 207.272 91.3041C207.272 91.773 205.661 93.1747 202.349 95.4295L202.169 95.5841C198.857 97.8438 195.814 99.6297 192.861 100.877C189.997 102.199 187.578 102.822 185.702 102.822C184.36 102.822 183.283 102.513 182.57 101.889C181.761 101.266 181.407 100.333 181.407 99.2406C181.407 97.764 181.946 96.048 182.929 94.0277C184.001 92.0024 185.523 89.593 187.673 86.8644M167.175 79.6312C166.906 79.6312 166.637 79.5514 166.547 79.4766C166.457 79.3968 166.367 79.2421 166.367 79.0875C166.367 78.9328 167.35 78.2295 169.32 76.9076C171.291 75.6605 172.902 74.2587 174.154 72.5477C174.603 72.004 175.047 71.0662 175.586 69.824C176.569 67.5643 177.736 66.397 179.167 66.397C179.971 66.397 180.689 66.6315 181.138 67.0206C181.587 67.4097 181.856 68.0332 181.856 68.7316C181.856 69.8989 181.228 71.146 179.976 72.4679C178.723 73.7898 176.843 75.1167 174.249 76.5933C172.548 77.6059 171.026 78.3043 169.864 78.853C168.612 79.3968 167.714 79.6312 167.18 79.6312M154.645 98.3926C152.854 99.8741 151.242 101.041 149.811 101.74C148.289 102.518 146.947 102.907 145.785 102.907C144.533 102.907 143.635 102.518 142.922 101.74C142.293 100.962 141.939 99.7943 141.939 98.3926C141.939 96.6816 142.388 95.0454 143.371 93.489C144.264 91.9326 145.7 90.451 147.666 88.9745C150.17 87.029 152.859 85.4726 155.812 84.3053C158.675 83.1381 161.184 82.5943 163.419 82.5943C164.671 82.5943 165.569 82.8288 166.193 83.2179C166.731 83.607 167.086 84.3053 167.175 85.2432C167.624 84.7743 168.068 84.3852 168.607 83.9961C169.146 83.607 169.769 83.2179 170.398 82.9086C170.667 82.9086 171.026 82.9086 171.47 82.8288H172.363C173.436 82.8288 174.154 82.9086 174.603 83.0632C175.052 83.1431 175.232 83.3725 175.232 83.7616C175.232 84.0709 174.603 84.6944 173.261 85.7869C172.458 86.3306 171.919 86.7197 171.47 87.1088C167.53 90.3014 164.487 93.0251 162.252 95.2848C160.102 97.6194 158.94 99.1009 158.94 99.9539C158.94 100.263 159.029 100.498 159.209 100.577C159.388 100.732 159.658 100.812 160.102 100.812C161.354 100.812 163.235 100.268 165.829 99.1758C168.333 98.0883 170.932 96.6865 173.705 94.8159C174.867 94.0377 176.125 93.1797 177.466 92.1671C178.808 91.1544 179.616 90.6107 179.886 90.6107C180.155 90.6107 180.245 90.6905 180.425 90.8451C180.514 90.9249 180.604 91.0796 180.604 91.314C180.604 91.7829 178.993 93.1049 175.681 95.4394L175.501 95.5941C172.278 97.8538 169.146 99.6397 166.193 100.887C163.24 102.209 160.82 102.832 158.945 102.832C157.603 102.832 156.525 102.523 155.722 101.82C154.919 101.196 154.56 100.338 154.56 99.2506V98.7068C154.56 98.627 154.65 98.4724 154.65 98.3976L154.645 98.3926ZM154.285 96.8362L164.312 87.4929C164.761 87.1038 165.03 86.7946 165.205 86.4055C165.474 86.0962 165.564 85.7819 165.564 85.4726C165.564 85.1634 165.474 85.0037 165.295 84.8491C165.025 84.6944 164.756 84.6146 164.402 84.6146C163.419 84.6146 162.162 85.0037 160.551 85.7021C158.94 86.4005 157.238 87.4131 155.537 88.6602C152.764 90.6057 150.524 92.7058 148.643 94.8857C146.853 97.0657 145.96 98.7018 145.96 99.7145C145.96 100.024 146.05 100.338 146.319 100.572C146.588 100.807 146.947 100.882 147.302 100.882C148.11 100.882 149.092 100.493 150.345 99.7943C151.597 99.0959 152.938 98.0833 154.285 96.8362Z" fill="#D32B25"/>
<path d="M224.627 92.7857C220.866 95.9783 217.464 98.4675 214.331 100.104C211.198 101.815 208.604 102.673 206.365 102.673C204.843 102.673 203.681 102.284 202.783 101.505C201.89 100.727 201.441 99.7146 201.441 98.4675C201.441 96.6767 202.244 94.811 203.945 92.8605C205.557 90.8353 207.886 88.8898 210.929 87.0241C213.169 85.5476 215.493 84.4551 217.913 83.6769C220.242 82.8189 222.387 82.4298 224.178 82.4298C225.61 82.4298 226.772 82.7391 227.67 83.4425C228.563 84.1408 229.012 84.9988 229.012 86.0913C229.012 86.7897 228.743 87.6477 228.294 88.5805C227.755 89.4385 226.952 90.4511 225.964 91.5386C226.233 92.0823 226.682 92.5513 227.306 92.8605C227.845 93.095 228.468 93.2496 229.276 93.2496C230.349 93.2496 231.691 92.7807 233.127 91.9277C234.559 91.0697 235.457 90.6058 235.811 90.6058C235.991 90.6058 236.17 90.6856 236.26 90.7604C236.35 90.8402 236.35 90.9949 236.35 91.2293C236.35 91.6982 235.547 92.4764 233.846 93.4093C232.235 94.3421 230.713 94.811 229.281 94.811C228.388 94.811 227.491 94.6564 226.777 94.3421C226.059 94.0328 225.346 93.4841 224.627 92.7857ZM205.382 99.5599C205.382 100.029 205.562 100.338 205.741 100.493C206.011 100.727 206.459 100.802 206.993 100.802C208.245 100.802 209.946 100.258 212.096 99.2457C214.157 98.233 216.571 96.6767 219.345 94.6514C221.764 92.8605 223.64 91.2243 224.981 89.668C226.323 88.1116 226.952 86.9443 226.952 86.0115C226.952 85.5426 226.772 85.1535 226.413 84.8442C226.144 84.6097 225.695 84.4551 225.071 84.4551C224.088 84.4551 222.742 84.8442 221.046 85.7022C219.344 86.4804 217.464 87.6477 215.583 89.0494C212.451 91.384 210.031 93.4841 208.156 95.3547C206.275 97.3002 205.382 98.7019 205.382 99.5599Z" fill="#D32B25"/>
<path d="M258.387 93.2543C257.938 92.6308 257.668 92.0072 257.404 91.5433C257.224 90.9996 257.135 90.5307 257.135 90.0617C257.135 88.1911 257.938 86.5599 259.639 85.0035C261.25 83.4471 263.131 82.6689 265.101 82.6689C265.904 82.6689 266.533 82.8236 267.071 83.2127C267.52 83.6018 267.7 84.0707 267.7 84.7691C267.7 85.6271 267.251 86.6397 266.358 87.8818C265.465 89.0491 263.854 90.8399 261.524 93.0997C262.063 93.3341 262.597 93.5686 263.136 93.7232C263.764 93.8779 264.298 93.9577 264.926 93.9577C266.897 93.9577 268.777 93.4139 270.563 92.3215C272.354 91.234 273.247 90.6853 273.337 90.6853C273.606 90.6853 273.786 90.7651 273.876 90.8399C274.055 90.9946 274.145 91.1492 274.145 91.3088C274.145 92.0072 273.162 92.8652 271.012 93.8779C268.862 94.9653 266.717 95.5141 264.388 95.5141C263.585 95.5141 262.776 95.4342 262.058 95.2796C261.25 95.125 260.537 94.8905 259.818 94.5812C255.967 97.3847 252.57 99.4848 249.612 100.807C246.659 102.129 244.06 102.832 241.646 102.832C240.214 102.832 239.052 102.523 238.333 101.899C237.525 101.355 237.171 100.497 237.171 99.3302C237.171 98.1629 237.71 96.9158 238.782 95.4392C239.855 93.9627 241.376 92.4811 243.257 91.0794C243.796 90.6903 244.599 90.1465 245.497 89.4432C248.54 87.2633 249.971 85.9413 249.971 85.5522C249.971 85.3976 249.881 85.243 249.702 85.0833C249.522 84.9287 249.253 84.8489 248.983 84.8489C248.445 84.8489 247.552 85.1582 246.21 85.7069C244.958 86.2506 243.526 87.0288 241.915 88.0414C240.573 88.8196 239.141 89.8323 237.62 90.9197C236.009 92.0072 235.116 92.5559 234.846 92.5559C234.667 92.5559 234.487 92.4761 234.397 92.3215C234.218 92.2417 234.128 92.087 234.128 91.9324C234.128 91.5433 234.667 90.9996 235.65 90.2214C236.722 89.3634 238.154 88.4305 240.034 87.2633C242.538 85.7069 244.688 84.6144 246.659 83.8362C248.54 83.058 250.151 82.6689 251.403 82.6689C252.386 82.6689 253.104 82.9034 253.643 83.3673C254.092 83.8362 254.361 84.4548 254.361 85.3128C254.361 87.1785 251.677 90.1366 246.305 94.0325L245.856 94.4216C244.065 95.7435 242.813 96.7562 242.095 97.5344C241.376 98.3125 241.022 99.0109 241.022 99.5596C241.022 99.9487 241.202 100.258 241.471 100.492C241.83 100.727 242.274 100.802 242.903 100.802C244.514 100.802 246.754 100.103 249.617 98.7765C252.391 97.3747 255.344 95.5091 258.392 93.2493M259.908 92.0072C261.968 89.9819 263.4 88.4255 264.383 87.3381C265.276 86.1708 265.725 85.3128 265.725 84.7691C265.725 84.6144 265.635 84.5346 265.545 84.4598C265.365 84.38 265.276 84.38 265.006 84.38C263.754 84.38 262.502 85.0035 261.245 86.2506C259.993 87.4977 259.364 88.8196 259.364 90.1416C259.364 90.376 259.454 90.6105 259.544 90.9197C259.634 91.3088 259.724 91.6181 259.903 92.0072H259.908Z" fill="#D32B25"/>
<path d="M299.095 102.518C298.112 102.673 297.484 102.752 296.945 102.752C296.496 102.832 296.142 102.832 295.693 102.832C295.065 102.832 294.621 102.752 294.351 102.678C293.992 102.523 293.812 102.368 293.812 102.134C293.812 101.899 294.795 100.812 296.676 98.9413C297.215 98.3976 297.659 98.0085 297.928 97.6942L311.087 84.3852C307.955 86.176 304.912 88.1215 301.959 90.1468C299.005 92.2469 297.394 93.3393 297.215 93.3393C297.035 93.3393 296.945 93.2595 296.855 93.1049C296.766 93.0251 296.676 92.8704 296.676 92.636C296.676 92.0922 298.287 90.7653 301.51 88.5106C304.732 86.2508 309.566 83.1381 315.921 79.2471L338.209 56.7495L338.299 56.6696C338.838 56.0461 339.461 55.8116 340.18 55.8116C340.983 55.8116 341.791 55.8915 342.419 56.1209C343.048 56.3554 343.312 56.5898 343.312 56.8193C343.312 56.9739 343.222 57.1286 343.133 57.2882C343.043 57.5227 342.863 57.7571 342.594 57.9866L313.681 87.2535C316.185 85.6971 318.246 84.5298 320.126 83.7516C321.917 82.9734 323.528 82.5844 324.691 82.5844C325.943 82.5844 326.841 82.8936 327.554 83.4424C328.272 83.9861 328.626 84.7643 328.626 85.7769C328.626 86.7098 328.267 87.4879 327.554 88.1115C326.751 88.8099 325.853 89.1241 324.691 89.1241C324.152 89.1241 323.708 88.9695 323.259 88.5804C322.9 88.1913 322.72 87.8022 322.72 87.2585C322.72 86.7896 322.9 86.2458 323.349 85.8567C323.798 85.3878 324.421 84.9239 325.409 84.5348H325.05C323.887 84.5348 322.456 84.8441 320.934 85.4676C319.323 86.166 317.353 87.2585 314.849 88.735C316.19 89.1241 317.178 89.6679 317.802 90.3712C318.43 91.0696 318.784 91.9276 318.784 92.9403C318.784 93.9529 318.156 95.2748 316.814 96.6766C315.472 98.0783 314.844 99.2456 314.844 100.024C314.844 100.258 314.933 100.493 315.203 100.568C315.382 100.722 315.741 100.802 316.096 100.802C317.348 100.802 319.228 100.258 321.733 99.1658C324.237 97.9985 326.836 96.5968 329.699 94.7311C330.861 93.9529 332.113 93.0949 333.46 92.0823C334.802 91.0696 335.61 90.6057 335.88 90.6057C336.059 90.6057 336.239 90.6855 336.418 90.7603C336.508 90.915 336.598 91.0696 336.598 91.3041C336.598 91.773 334.987 93.0949 331.764 95.4295L331.495 95.5841C328.272 97.8438 325.14 99.6297 322.186 100.877C319.233 102.199 316.814 102.822 314.938 102.822C313.596 102.822 312.524 102.433 311.716 101.735C310.913 101.111 310.464 100.178 310.464 99.086C310.464 97.9935 311.092 96.7514 312.344 95.195C313.596 93.6386 314.225 92.4714 314.225 91.8478C314.225 91.1494 314.045 90.6805 313.596 90.3662C313.058 89.9772 312.434 89.7427 311.536 89.7427C309.296 91.768 307.151 93.8681 305.091 95.9682C302.941 98.1481 300.976 100.328 299.095 102.508M270.901 99.8691C271.08 100.413 271.44 100.802 272.063 101.036C272.692 101.271 273.495 101.426 274.567 101.426C277.431 101.426 279.67 100.104 281.282 97.3799C282.893 94.6563 283.876 90.6057 284.145 85.2382C281.371 86.6399 278.772 88.1963 276.358 89.9073C273.944 91.6982 272.687 92.5562 272.417 92.5562C272.148 92.5562 272.058 92.4763 271.879 92.4015C271.789 92.3217 271.699 92.1671 271.699 92.0124C271.699 91.4687 272.861 90.3762 275.281 88.745C277.695 87.1088 280.743 85.2432 284.589 83.2179C284.769 81.7363 285.307 80.569 286.021 79.6362C286.824 78.7782 287.632 78.3143 288.615 78.3143C289.064 78.3143 289.418 78.4689 289.687 78.7034C290.046 78.9378 290.136 79.3269 290.136 79.7909C290.136 80.4892 289.867 81.2674 289.153 81.9708C288.525 82.749 287.632 83.3725 286.559 83.8414C287.188 84.6196 287.632 85.5524 287.901 86.5651C288.171 87.6526 288.35 88.8248 288.35 90.0669C288.35 92.1671 287.991 93.9579 287.188 95.5143C286.47 97.0706 285.307 98.3926 283.876 99.3304C287.637 98.0085 291.034 96.2925 294.256 94.0377C297.389 91.778 299.09 90.6107 299.09 90.6107C299.27 90.6107 299.449 90.6905 299.629 90.8451C299.719 90.9249 299.809 91.0796 299.809 91.314C299.809 91.7031 299.18 92.4015 297.928 93.4142C296.676 94.5016 294.975 95.5941 293.004 96.7614C289.782 98.7068 286.649 100.263 283.427 101.276C280.294 102.363 277.431 102.912 274.921 102.912C273.131 102.912 271.609 102.523 270.447 101.825C269.195 101.046 268.656 100.114 268.656 98.9463C268.656 98.0135 269.015 97.2353 269.639 96.6865C270.357 96.063 271.16 95.7537 272.143 95.7537C272.861 95.7537 273.485 95.9882 273.934 96.2974C274.383 96.6865 274.562 97.2303 274.562 97.779C274.562 98.4774 274.293 99.0261 273.759 99.4152C273.22 99.7245 272.597 99.9589 271.699 99.9589H271.16C271.07 99.8791 270.981 99.8791 270.891 99.8791" fill="#D32B25"/>
<path d="M356.938 79.6312C356.669 79.6312 356.4 79.5514 356.31 79.4765C356.22 79.3967 356.13 79.2421 356.13 79.0874C356.13 78.9328 357.113 78.2294 359.083 76.9075C361.054 75.6604 362.665 74.2587 363.917 72.5477C364.366 72.0039 364.81 71.0661 365.349 69.824C366.332 67.5643 367.499 66.397 368.931 66.397C369.734 66.397 370.452 66.6314 370.901 67.0205C371.35 67.4096 371.619 68.0332 371.619 68.7315C371.619 69.8988 370.991 71.1459 369.739 72.4678C368.487 73.7898 366.606 75.1167 364.012 76.5932C362.311 77.6059 360.789 78.3043 359.627 78.853C358.375 79.3967 357.477 79.6312 356.943 79.6312M344.408 98.3925C342.617 99.8741 341.005 101.041 339.574 101.74C338.052 102.518 336.711 102.907 335.548 102.907C334.296 102.907 333.398 102.518 332.685 101.74C332.056 100.962 331.702 99.7943 331.702 98.3925C331.702 96.6815 332.151 95.0453 333.134 93.4889C334.027 91.9326 335.463 90.451 337.429 88.9744C339.933 87.029 342.622 85.4726 345.575 84.3053C348.438 83.138 350.947 82.5943 353.182 82.5943C354.434 82.5943 355.332 82.8287 355.956 83.2178C356.494 83.6069 356.849 84.3053 356.938 85.2431C357.387 84.7742 357.831 84.3851 358.37 83.996C358.909 83.6069 359.532 83.2178 360.161 82.9086C360.43 82.9086 360.789 82.9086 361.233 82.8287H362.126C363.199 82.8287 363.917 82.9086 364.366 83.0632C364.815 83.143 364.995 83.3725 364.995 83.7616C364.995 84.0708 364.366 84.6944 363.024 85.7869C362.216 86.3306 361.682 86.7197 361.233 87.1088C357.293 90.3014 354.25 93.025 352.015 95.2848C349.865 97.6193 348.703 99.1009 348.703 99.9539C348.703 100.263 348.792 100.498 348.972 100.577C349.152 100.732 349.421 100.812 349.865 100.812C351.117 100.812 352.998 100.268 355.592 99.1757C358.096 98.0882 360.695 96.6865 363.468 94.8158C364.631 94.0377 365.883 93.1797 367.229 92.167C368.571 91.1544 369.379 90.6106 369.644 90.6106C369.908 90.6106 370.003 90.6904 370.183 90.8451C370.272 90.9249 370.362 91.0795 370.362 91.314C370.362 91.7829 368.751 93.1048 365.439 95.4394L365.259 95.594C362.037 97.8538 358.904 99.6396 355.951 100.887C352.998 102.209 350.578 102.832 348.703 102.832C347.361 102.832 346.288 102.523 345.48 101.82C344.677 101.196 344.318 100.338 344.318 99.2505V98.7068C344.318 98.627 344.408 98.4723 344.408 98.3975V98.3925ZM344.048 96.8361L354.075 87.4929C354.524 87.1038 354.793 86.7945 354.968 86.4054C355.237 86.0961 355.327 85.7819 355.327 85.4726C355.327 85.1633 355.237 85.0037 355.058 84.849C354.788 84.6944 354.519 84.6146 354.165 84.6146C353.182 84.6146 351.925 85.0037 350.314 85.7021C348.703 86.4004 347.002 87.4131 345.301 88.6602C342.527 90.6056 340.287 92.7058 338.407 94.8857C336.616 97.0656 335.723 98.7018 335.723 99.7144C335.723 100.024 335.813 100.338 336.082 100.572C336.351 100.807 336.71 100.882 337.065 100.882C337.868 100.882 338.855 100.493 340.108 99.7943C341.36 99.0959 342.702 98.0832 344.048 96.8361Z" fill="#D32B25"/>
<path d="M195.585 150.785C199.94 149.987 203.596 148.665 206.565 146.894C209.533 145.124 211.014 143.447 211.014 141.856C211.014 141.327 210.914 140.883 210.72 140.709C210.421 140.444 210.027 140.355 209.533 140.355C207.951 140.355 205.971 141.238 203.596 143.009C201.222 144.779 198.553 147.343 195.585 150.79M194.198 153.349C193.899 153.878 193.704 154.412 193.505 154.941C193.405 155.47 193.305 155.913 193.305 156.357C193.305 157.24 193.605 157.949 194.293 158.478C194.987 159.006 195.874 159.276 197.062 159.276C199.042 159.276 201.511 158.567 204.479 157.24C207.448 155.913 210.515 154.058 213.878 151.579C214.765 150.96 215.858 150.077 217.045 149.104C218.332 148.042 219.12 147.513 219.42 147.513C219.619 147.513 219.814 147.603 220.013 147.688C220.113 147.862 220.213 148.042 220.213 148.306C220.213 148.66 219.819 149.189 218.926 149.987C218.038 150.785 216.551 151.933 214.376 153.614C211.209 156.088 207.946 157.949 204.779 159.36C201.516 160.687 198.743 161.396 196.269 161.396C193.994 161.396 192.113 160.777 190.726 159.45C189.34 158.213 188.651 156.532 188.651 154.322C188.651 152.377 189.345 150.431 190.726 148.486C192.113 146.54 194.089 144.685 196.762 142.914C199.137 141.412 201.312 140.26 203.292 139.552C205.367 138.753 207.248 138.404 208.929 138.404C210.51 138.404 211.598 138.579 212.191 139.023C212.885 139.552 213.179 140.26 213.179 141.412C213.179 143.622 211.398 145.922 207.737 148.311C204.075 150.701 199.526 152.377 194.183 153.349H194.198ZM147.602 164.933L129.793 185.714C129.399 185.804 128.9 185.889 128.506 185.979C128.012 186.068 127.419 186.068 126.825 186.068C125.937 186.068 125.244 185.979 124.845 185.894C124.451 185.804 124.251 185.629 124.251 185.365C124.251 184.746 126.626 181.738 131.275 176.346C135.924 170.953 145.721 160.074 160.462 143.802L153.044 149.02C152.65 149.284 152.351 149.548 152.151 149.638C151.952 149.728 151.757 149.728 151.558 149.728C151.358 149.728 151.163 149.638 150.964 149.463C150.764 149.374 150.665 149.199 150.665 149.02C150.665 148.576 152.445 147.249 155.907 144.774C159.469 142.385 162.537 140.085 165.306 137.965C166.593 136.993 168.174 135.666 170.154 134.074C173.616 131.156 175.991 129.739 177.178 129.739C177.672 129.739 177.971 129.739 178.166 129.914C178.365 130.004 178.56 130.089 178.56 130.358C178.56 130.712 177.078 132.303 174.305 135.311C171.536 138.23 169.062 141.238 166.687 144.246C169.655 142.39 172.229 140.973 174.604 140.001C176.879 138.938 178.759 138.499 180.146 138.499C181.234 138.499 182.027 138.763 182.62 139.297C183.214 139.826 183.513 140.624 183.513 141.597C183.513 142.57 183.119 143.632 182.326 144.779C181.533 145.842 179.852 147.433 177.283 149.643C176.589 150.262 175.602 151.06 174.315 152.033C170.459 155.305 168.478 157.34 168.478 158.044C168.478 158.308 168.678 158.572 168.872 158.842C169.172 159.016 169.566 159.106 170.06 159.106C171.446 159.106 173.521 158.487 176.29 157.25C178.959 156.013 181.927 154.422 184.995 152.297C186.282 151.414 187.664 150.441 189.15 149.289C190.632 148.142 191.525 147.518 191.819 147.518C192.018 147.518 192.213 147.608 192.412 147.782C192.512 147.872 192.612 148.047 192.612 148.311C192.612 148.84 190.831 150.431 187.17 153L186.97 153.175C183.508 155.649 180.146 157.684 176.779 159.191C173.516 160.608 170.942 161.401 169.162 161.401C167.775 161.401 166.588 161.047 165.7 160.338C164.812 159.63 164.313 158.657 164.313 157.51C164.313 156.183 164.807 154.766 165.794 153.265C166.782 151.848 168.563 150.082 170.937 148.047C172.125 147.074 173.706 145.837 175.587 144.51C177.467 143.183 178.355 142.3 178.355 141.856C178.355 141.592 178.255 141.412 178.056 141.238C177.856 141.148 177.662 141.063 177.263 141.063C176.864 141.063 176.175 141.238 175.188 141.682C174.2 142.21 172.813 142.829 171.132 143.802C167.371 145.922 163.714 148.491 160.347 151.409C156.985 154.327 152.73 158.837 147.587 164.937" fill="#D32B25"/>
<path d="M219.409 161.042C218.322 161.216 217.629 161.306 217.035 161.306C216.541 161.396 216.142 161.396 215.648 161.396C214.955 161.396 214.461 161.306 214.167 161.221C213.773 161.047 213.573 160.867 213.573 160.603C213.573 160.338 214.66 159.101 216.741 156.976C217.334 156.358 217.828 155.914 218.127 155.559L232.669 140.44C229.207 142.475 225.844 144.685 222.577 146.984C219.315 149.374 217.534 150.611 217.334 150.611C217.135 150.611 217.035 150.521 216.94 150.347C216.84 150.257 216.741 150.082 216.741 149.818C216.741 149.199 218.521 147.698 222.083 145.129C225.645 142.565 230.987 139.028 238.011 134.603L262.644 109.048L262.744 108.958C263.337 108.249 264.031 107.985 264.819 107.985C265.707 107.985 266.6 108.075 267.293 108.339C267.986 108.604 268.281 108.868 268.281 109.137C268.281 109.312 268.181 109.492 268.081 109.666C267.981 109.931 267.782 110.195 267.488 110.464L235.532 143.717C238.3 141.946 240.575 140.619 242.655 139.736C244.636 138.853 246.417 138.409 247.699 138.409C249.085 138.409 250.073 138.763 250.866 139.382C251.659 140.001 252.053 140.884 252.053 142.036C252.053 143.098 251.659 143.981 250.866 144.69C249.978 145.488 248.986 145.837 247.699 145.837C247.105 145.837 246.611 145.662 246.117 145.218C245.723 144.775 245.524 144.336 245.524 143.717C245.524 143.188 245.723 142.57 246.217 142.126C246.711 141.597 247.404 141.063 248.492 140.624H248.098C246.811 140.624 245.229 140.978 243.548 141.687C241.767 142.485 239.592 143.722 236.819 145.403C238.305 145.847 239.393 146.466 240.081 147.259C240.775 148.057 241.169 149.03 241.169 150.177C241.169 151.324 240.475 152.831 238.994 154.422C237.512 156.013 236.819 157.34 236.819 158.223C236.819 158.488 236.919 158.752 237.213 158.842C237.413 159.016 237.807 159.106 238.201 159.106C239.587 159.106 241.663 158.488 244.431 157.25C247.2 155.924 250.068 154.332 253.236 152.212C254.523 151.329 255.904 150.357 257.391 149.204C258.873 148.057 259.766 147.523 260.06 147.523C260.259 147.523 260.454 147.613 260.653 147.698C260.753 147.872 260.853 148.052 260.853 148.316C260.853 148.845 259.072 150.352 255.51 153.005L255.211 153.18C251.649 155.744 248.187 157.779 244.92 159.196C241.653 160.697 238.984 161.406 236.909 161.406C235.427 161.406 234.24 160.962 233.347 160.169C232.454 159.46 231.96 158.398 231.96 157.161C231.96 155.924 232.654 154.507 234.035 152.741C235.422 150.97 236.111 149.648 236.111 148.94C236.111 148.142 235.911 147.613 235.417 147.259C234.824 146.815 234.13 146.55 233.142 146.55C230.668 148.85 228.294 151.239 226.019 153.624C223.645 156.098 221.47 158.577 219.389 161.052" fill="#D32B25"/>
<path d="M322.019 140.086C322.119 139.996 322.219 139.911 322.513 139.911C322.807 139.821 323.007 139.736 323.306 139.736C324.194 139.736 324.987 139.826 325.581 140.001C326.274 140.175 326.569 140.445 326.569 140.619C326.569 140.709 326.274 141.063 325.681 141.682C325.087 142.211 324.593 142.744 324.199 143.183C323.012 144.51 322.124 145.927 321.53 147.164C320.837 148.491 320.543 149.638 320.543 150.701C320.543 151.409 320.742 152.028 321.236 152.472C321.63 152.916 322.224 153.18 323.017 153.18C323.81 153.18 324.698 152.916 325.591 152.561C326.579 152.118 327.666 151.324 329.053 150.352C329.647 149.908 330.34 149.289 331.228 148.671C332.216 147.788 332.909 147.344 333.208 147.344C333.508 147.344 333.702 147.433 333.802 147.518C333.902 147.693 334.001 147.872 334.001 148.137C334.001 148.401 333.802 148.666 333.508 149.11C333.113 149.464 332.42 150.082 331.233 150.965C328.958 152.646 327.078 153.794 325.691 154.412C324.304 155.031 323.022 155.385 321.735 155.385C320.054 155.385 318.767 154.941 317.879 154.058C316.986 153.085 316.492 151.848 316.492 150.257C316.492 149.638 316.592 149.02 316.791 148.222C316.991 147.513 317.186 146.72 317.485 145.832C314.617 148.222 311.848 150.696 309.274 153.26C306.605 155.824 304.231 158.388 302.051 161.042C301.258 161.132 300.469 161.216 299.776 161.306C298.983 161.396 298.389 161.396 297.796 161.396C297.202 161.396 296.708 161.306 296.314 161.221C296.02 161.132 295.82 160.957 295.82 160.777C295.82 160.423 296.808 159.276 298.589 157.505C299.776 156.358 300.664 155.47 301.357 154.761C305.019 150.96 307.393 148.306 308.68 146.625C309.967 144.944 310.561 143.617 310.561 142.824C310.561 142.56 310.561 142.38 310.461 142.295C310.361 142.121 310.262 142.121 310.067 142.121C309.274 142.121 308.186 142.475 306.805 143.094C305.518 143.802 303.737 144.864 301.562 146.366C300.968 146.81 300.175 147.428 299.187 148.222C298.1 149.194 297.307 149.638 296.913 149.638C296.713 149.638 296.519 149.548 296.319 149.374C296.12 149.199 296.025 149.02 296.025 148.845C296.025 148.491 296.319 148.047 297.012 147.428C297.706 146.81 298.893 145.837 300.574 144.6C303.048 142.744 305.423 141.238 307.698 140.09C310.072 138.943 311.753 138.409 312.94 138.409C313.828 138.409 314.522 138.674 315.016 139.118C315.609 139.647 315.809 140.355 315.809 141.238C315.809 141.856 315.709 142.565 315.415 143.358C315.215 144.241 314.821 145.129 314.227 146.186L322.044 140.086H322.019ZM283.339 135.042C283.045 135.042 282.746 134.952 282.646 134.868C282.546 134.778 282.446 134.603 282.446 134.424C282.446 134.244 283.534 133.451 285.709 131.949C287.884 130.533 289.665 128.941 291.051 126.996C291.545 126.377 292.039 125.315 292.633 123.903C293.72 121.339 295.007 120.012 296.588 120.012C297.476 120.012 298.27 120.277 298.763 120.721C299.257 121.165 299.557 121.868 299.557 122.666C299.557 123.993 298.863 125.41 297.481 126.911C296.095 128.413 294.019 129.919 291.151 131.6C289.271 132.748 287.589 133.546 286.302 134.164C284.916 134.783 283.928 135.047 283.334 135.047M269.487 156.358C267.506 158.039 265.725 159.366 264.144 160.159C262.463 161.042 260.976 161.486 259.694 161.486C258.308 161.486 257.32 161.042 256.527 160.159C255.833 159.276 255.439 157.949 255.439 156.358C255.439 154.412 255.933 152.556 257.021 150.786C258.008 149.015 259.595 147.339 261.769 145.658C264.538 143.448 267.506 141.677 270.774 140.35C273.941 139.023 276.71 138.404 279.184 138.404C280.571 138.404 281.558 138.669 282.252 139.113C282.845 139.557 283.24 140.35 283.339 141.412C283.833 140.884 284.327 140.44 284.921 139.996C285.514 139.552 286.208 139.113 286.901 138.759C287.2 138.759 287.594 138.759 288.088 138.669H289.076C290.263 138.669 291.056 138.759 291.55 138.933C292.044 139.023 292.244 139.287 292.244 139.731C292.244 140.085 291.55 140.794 290.069 142.031C289.176 142.65 288.587 143.094 288.088 143.532C283.733 147.159 280.371 150.252 277.897 152.816C275.522 155.47 274.235 157.151 274.235 158.124C274.235 158.478 274.335 158.742 274.535 158.832C274.734 159.006 275.029 159.096 275.522 159.096C276.909 159.096 278.984 158.478 281.853 157.241C284.621 156.003 287.49 154.412 290.558 152.287C291.845 151.404 293.226 150.431 294.713 149.279C296.194 148.132 297.087 147.508 297.382 147.508C297.676 147.508 297.776 147.598 297.975 147.773C298.075 147.862 298.175 148.037 298.175 148.301C298.175 148.83 296.394 150.337 292.732 152.99L292.533 153.165C288.971 155.729 285.509 157.764 282.242 159.181C278.979 160.683 276.306 161.391 274.23 161.391C272.749 161.391 271.562 161.037 270.669 160.244C269.781 159.535 269.382 158.563 269.382 157.325V156.707C269.382 156.617 269.482 156.442 269.482 156.353L269.487 156.358ZM269.092 154.587L280.172 143.976C280.666 143.532 280.965 143.178 281.159 142.739C281.459 142.385 281.553 142.031 281.553 141.677C281.553 141.323 281.454 141.148 281.259 140.968C280.96 140.794 280.666 140.704 280.271 140.704C279.184 140.704 277.797 141.148 276.016 141.941C274.235 142.739 272.355 143.887 270.474 145.303C267.406 147.513 264.932 149.903 262.857 152.377C260.877 154.851 259.889 156.712 259.889 157.859C259.889 158.213 259.989 158.567 260.283 158.832C260.577 159.096 260.976 159.186 261.37 159.186C262.258 159.186 263.351 158.742 264.733 157.949C266.119 157.151 267.601 156.003 269.087 154.587H269.092Z" fill="#D32B25"/>
<path d="M336.841 150.785C341.196 149.987 344.852 148.665 347.82 146.895C350.788 145.124 352.27 143.448 352.27 141.856C352.27 141.327 352.17 140.884 351.976 140.709C351.676 140.445 351.282 140.355 350.788 140.355C349.207 140.355 347.227 141.238 344.852 143.009C342.478 144.779 339.809 147.343 336.841 150.79M335.454 153.35C335.155 153.878 334.96 154.412 334.761 154.941C334.661 155.47 334.561 155.914 334.561 156.358C334.561 157.24 334.855 157.949 335.549 158.478C336.242 159.006 337.13 159.276 338.317 159.276C340.298 159.276 342.767 158.567 345.735 157.24C348.703 155.914 351.771 154.058 355.133 151.579C356.021 150.96 357.114 150.077 358.301 149.104C359.588 148.042 360.376 147.513 360.675 147.513C360.875 147.513 361.069 147.603 361.269 147.688C361.369 147.862 361.469 148.042 361.469 148.306C361.469 148.66 361.074 149.189 360.182 149.987C359.289 150.785 357.807 151.933 355.632 153.614C352.464 156.088 349.202 157.949 346.034 159.361C342.772 160.687 339.999 161.396 337.524 161.396C335.25 161.396 333.369 160.777 331.982 159.45C330.595 158.213 329.907 156.532 329.907 154.322C329.907 152.377 330.6 150.431 331.982 148.486C333.369 146.54 335.344 144.685 338.018 142.914C340.393 141.412 342.568 140.26 344.548 139.552C346.623 138.753 348.504 138.404 350.185 138.404C351.766 138.404 352.854 138.579 353.447 139.023C354.141 139.552 354.435 140.26 354.435 141.412C354.435 143.622 352.654 145.922 348.993 148.311C345.331 150.701 340.782 152.377 335.439 153.35H335.454Z" fill="#D32B25"/>
<path d="M360.768 161.042C360.469 161.131 360.075 161.216 359.681 161.216C359.187 161.306 358.494 161.306 357.406 161.306C356.319 161.306 355.526 161.306 355.231 161.216C354.837 161.126 354.638 160.952 354.638 160.687C354.638 160.159 356.024 158.742 358.893 156.442C360.773 154.851 362.355 153.524 363.542 152.462L364.729 151.489C371.259 145.827 374.427 142.644 374.427 141.761C374.427 141.497 374.327 141.318 374.227 141.233C374.127 141.143 374.028 141.058 373.933 141.058C373.045 141.058 371.858 141.412 370.471 142.205C369.084 143.004 367.109 144.326 364.535 146.361C363.941 146.805 363.148 147.423 362.26 148.216C361.073 149.189 360.28 149.718 359.885 149.718C359.686 149.718 359.491 149.628 359.292 149.543C359.092 149.369 358.993 149.189 358.993 149.015C358.993 148.571 360.18 147.513 362.455 145.652C362.948 145.298 363.248 144.944 363.542 144.769C366.211 142.649 368.585 141.053 370.665 139.996C372.646 138.933 374.427 138.404 375.808 138.404C376.796 138.404 377.589 138.669 378.183 139.287C378.777 139.906 378.976 140.789 378.976 142.031V142.739C378.876 143.093 378.876 143.448 378.777 144.066C382.039 142.031 384.613 140.619 386.593 139.731C388.474 138.933 390.155 138.494 391.542 138.494C392.629 138.494 393.422 138.758 394.016 139.292C394.61 139.821 394.904 140.619 394.904 141.592C394.904 142.565 394.51 143.627 393.717 144.774C392.924 145.837 391.243 147.428 388.674 149.638C387.98 150.257 386.992 151.055 385.805 152.028C381.849 155.3 379.869 157.335 379.869 158.039C379.869 158.303 380.069 158.567 380.263 158.837C380.557 159.011 380.956 159.101 381.45 159.101C382.932 159.101 384.912 158.483 387.681 157.245C390.449 156.008 393.318 154.417 396.386 152.292C397.772 151.409 399.154 150.436 400.641 149.284C402.122 148.137 403.015 147.513 403.309 147.513C403.509 147.513 403.704 147.603 403.803 147.688C403.903 147.862 404.003 148.042 404.003 148.306C404.003 148.835 402.222 150.342 398.66 152.995L398.461 153.17C394.899 155.644 391.437 157.679 388.17 159.186C384.907 160.603 382.433 161.396 380.652 161.396C379.265 161.396 378.078 161.042 377.19 160.333C376.302 159.625 375.803 158.652 375.803 157.505C375.803 156.088 376.397 154.587 377.584 152.995C378.772 151.314 380.453 149.633 382.628 147.957C383.421 147.428 384.309 146.72 385.596 145.747C388.564 143.537 390.045 142.21 390.045 141.766C390.045 141.592 389.946 141.412 389.751 141.238C389.452 141.148 389.257 141.063 388.858 141.063C387.077 141.063 383.515 142.919 378.173 146.635C372.83 150.351 366.994 155.215 360.763 161.052" fill="#D32B25"/>
<path d="M217.905 67.9835C217.636 67.9835 217.367 67.9037 217.277 67.8288C217.187 67.749 217.097 67.5944 217.097 67.4397C217.097 67.2851 218.08 66.5817 220.05 65.2598C222.021 64.0127 223.632 62.611 224.884 60.9C225.333 60.3562 225.777 59.4234 226.316 58.1763C227.299 55.9165 228.466 54.7493 229.897 54.7493C230.701 54.7493 231.419 54.9837 231.868 55.3728C232.317 55.7619 232.586 56.3855 232.586 57.0838C232.586 58.2511 231.958 59.4982 230.706 60.8201C229.454 62.1421 227.573 63.469 224.979 64.9455C223.278 65.9582 221.756 66.6566 220.594 67.2053C219.342 67.749 218.444 67.9835 217.91 67.9835" fill="#D32B25"/>
</g>
</g>
<defs>
<clipPath id="clip0_245_2718">
<rect width="404" height="202" fill="white"/>
</clipPath>
<clipPath id="clip1_245_2718">
<rect width="404" height="165.869" fill="white" transform="translate(0 20.2)"/>
</clipPath>
</defs>
</svg>
