<svg width="120" height="60" viewBox="0 0 120 60" fill="none" xmlns="http://www.w3.org/2000/svg">
<g clip-path="url(#clip0_1_29555)">
<path d="M114.687 38.8744L117.763 37.2445C118.235 36.9823 118.604 36.8237 118.815 36.7185C119.052 36.64 119.209 36.5866 119.287 36.5866C119.419 36.5866 119.498 36.5866 119.55 36.6385C119.576 36.6652 119.601 36.717 119.601 36.8222C119.601 36.9808 119.339 37.2164 118.813 37.532C118.656 37.6372 118.524 37.689 118.446 37.7424C117.499 38.3469 116.579 38.9781 115.685 39.636C114.817 40.2939 114.344 40.6095 114.291 40.6095C114.213 40.6095 114.159 40.5828 114.081 40.5043C114.029 40.4524 113.975 40.3724 113.949 40.2939L113.055 37.1393C113.029 37.0608 113.029 37.0075 113.029 36.9556C113.002 36.9037 113.002 36.8504 113.002 36.8237C113.002 36.7185 113.029 36.6667 113.054 36.6133C113.081 36.5615 113.132 36.5348 113.211 36.5348C113.473 36.5348 113.894 37.1927 114.5 38.4803L114.684 38.8744H114.687Z" fill="#571313"/>
<path d="M27.7177 18.6936C27.3592 18.4506 27.0391 18.2432 26.6805 18.138C26.362 18.0343 26.0019 17.9646 25.6434 17.9646C25.4433 17.9646 25.2848 17.9987 25.1248 18.0683C25.0047 18.138 24.9247 18.2417 24.9247 18.3454C24.9247 18.5188 25.0448 18.6225 25.2433 18.7262C25.4433 18.8299 25.7219 18.8655 26.0805 18.8655C26.399 18.8655 26.6791 18.8655 26.9176 18.8314C27.1962 18.7973 27.4762 18.7618 27.7148 18.6921M28.2363 19.2137C27.8778 19.3174 27.5577 19.387 27.1991 19.4567C26.8806 19.4908 26.5205 19.5263 26.162 19.5263C25.5233 19.5263 25.0047 19.4226 24.6462 19.2137C24.2876 19.0062 24.0876 18.7277 24.0876 18.381C24.0876 18.0343 24.2476 17.7572 24.5262 17.5483C24.8047 17.3749 25.2048 17.2712 25.7219 17.2712C26.239 17.2712 26.7591 17.3749 27.2377 17.5483C27.7563 17.7216 28.1948 17.9987 28.5934 18.381C30.4678 17.8253 32.9807 16.1273 36.1708 13.3521C37.8066 11.8956 39.1224 10.8199 40.0796 10.0923C41.7539 8.84326 43.3097 7.83867 44.7454 7.10967C46.2212 6.38068 47.3384 5.99988 48.0556 5.99988C48.2156 5.99988 48.3741 6.03396 48.4541 6.06952C48.5742 6.13916 48.6142 6.2088 48.6142 6.31252C48.6142 6.48588 48.2156 6.72887 47.457 6.97187C46.6598 7.21487 46.0212 7.52751 45.4626 7.83867C44.7054 8.28911 43.4282 9.29518 41.5939 10.8554C40.4367 11.8615 39.4795 12.6586 38.8023 13.2143C36.6094 14.9834 34.8136 16.2666 33.4178 17.0993C31.9821 17.932 30.5063 18.5914 29.0305 19.0759C29.1105 19.353 29.1906 19.596 29.2306 19.839C29.2706 20.082 29.2706 20.2894 29.2706 20.4983C29.2706 21.1577 29.0705 21.8156 28.672 22.5105C28.2734 23.2054 27.5548 24.1063 26.519 25.2161C26.1205 25.6324 25.5619 26.1525 24.8447 26.7763C23.6875 27.7468 23.1304 28.4758 23.1304 28.9618C23.1304 29.2744 23.2904 29.5515 23.529 29.7249C23.8075 29.9323 24.1676 30.0375 24.6062 30.0375C25.3233 30.0375 26.202 29.8301 27.1991 29.4137C28.2363 29.0329 29.3921 28.4076 30.7093 27.6105C31.5064 27.1245 32.3051 26.6044 33.0622 26.0147C33.8594 25.425 34.298 25.1479 34.378 25.1479C34.498 25.1479 34.538 25.182 34.6165 25.2175C34.6565 25.2872 34.6966 25.3568 34.6966 25.4605C34.6966 25.6339 34.458 25.911 33.8994 26.3273C33.3808 26.7437 32.6237 27.2638 31.6665 27.8876C30.1507 28.8581 28.7949 29.5871 27.6377 30.0731C26.4805 30.5235 25.4448 30.7665 24.5276 30.7665C23.7305 30.7665 23.0919 30.5591 22.6133 30.1427C22.0947 29.7264 21.8561 29.1722 21.8561 28.4773C21.8561 27.7824 22.0947 27.1245 22.5347 26.3273C22.9733 25.5643 23.652 24.8012 24.4491 24.0381C24.8477 23.6914 25.3663 23.2054 26.0449 22.6157C27.5607 21.2984 28.3178 20.362 28.3178 19.7723C28.3178 19.6686 28.3178 19.4952 28.2778 19.2863C28.2778 19.2522 28.2378 19.2167 28.2378 19.2167L28.2363 19.2137ZM25.2063 13.2143C24.4091 13.6647 23.6505 14.047 22.9733 14.2544C22.2562 14.4974 21.6176 14.6012 20.979 14.6012C20.2218 14.6012 19.6232 14.4619 19.2246 14.1507C18.786 13.8381 18.586 13.4217 18.586 12.8676C18.586 12.1045 19.4232 11.2021 21.019 10.1279C21.2575 9.98862 21.4175 9.8849 21.5376 9.81526C22.0562 9.50262 22.4147 9.22554 22.6148 9.0181C22.8148 8.81066 22.8933 8.56767 22.8933 8.39431C22.8933 8.22095 22.8133 8.11723 22.6933 8.04759C22.5333 7.94387 22.3347 7.90831 22.0547 7.90831C21.1775 7.90831 20.0603 8.18539 18.7446 8.74102C17.4288 9.29666 16.1131 10.0242 14.8358 10.9606C14.5573 11.1681 14.1572 11.4807 13.7586 11.863C13.3201 12.2793 13.0015 12.4868 12.8415 12.4868C12.8015 12.4868 12.7214 12.4527 12.6414 12.383C12.5614 12.349 12.5214 12.2793 12.5214 12.2097C12.5214 12.0022 12.7214 11.6896 13.08 11.3429C13.4786 10.9621 13.9972 10.5457 14.7158 10.0938C16.1116 9.15738 17.4673 8.42839 18.9031 7.87423C20.2989 7.35415 21.4961 7.07707 22.4533 7.07707C23.2104 7.07707 23.809 7.21635 24.2076 7.49343C24.6062 7.77051 24.8062 8.18687 24.8062 8.74251C24.8062 9.05515 24.7262 9.3663 24.4876 9.67894C24.2876 9.99158 23.969 10.3027 23.5305 10.6154C23.2919 10.7887 22.9318 10.9962 22.4933 11.3088C21.0975 12.2112 20.3789 12.9046 20.3789 13.3891C20.3789 13.4928 20.4589 13.5966 20.6174 13.6662C20.7775 13.7358 20.976 13.7699 21.256 13.7699C21.9732 13.7699 22.8118 13.5269 23.849 13.0068C24.8862 12.4868 26.6805 11.377 29.1535 9.71154C29.9107 9.19146 30.7493 8.56767 31.7065 7.83867C32.6236 7.10967 33.1823 6.76295 33.3808 6.76295C33.5008 6.76295 33.6194 6.76295 33.6594 6.83259C33.7394 6.86667 33.7794 6.93631 33.7794 7.00595C33.7794 7.14523 32.9822 7.94239 31.3464 9.36482C29.7106 10.8213 28.2363 12.2778 26.8791 13.7699C25.6434 15.1568 23.9275 17.1689 21.7746 19.8049C19.6602 22.4408 18.0659 24.21 17.0688 25.1464C15.0744 27.0193 13.08 28.4417 11.1657 29.3782C9.21129 30.2805 7.33694 30.765 5.46259 30.765C3.94681 30.765 2.63106 30.3842 1.55386 29.5856C0.516673 28.8225 -0.00192261 27.852 -0.00192261 26.7422C-0.00192261 26.0488 0.236631 25.4931 0.676696 25.0768C1.11528 24.6263 1.67388 24.4174 2.39102 24.4174C2.90962 24.4174 3.3482 24.5567 3.66677 24.8338C3.98533 25.0768 4.14536 25.4576 4.14536 25.9095C4.14536 26.3259 3.98533 26.6385 3.66677 26.88C3.3482 27.1215 2.94814 27.2623 2.39102 27.2623C2.31101 27.2623 2.15247 27.2282 1.95244 27.1926C1.75241 27.1586 1.59387 27.123 1.47385 27.123C1.35383 27.1571 1.31383 27.1926 1.27382 27.2267C1.23382 27.2608 1.23382 27.366 1.23382 27.4697C1.23382 28.0254 1.63239 28.5795 2.42955 29.0996C3.2267 29.6197 4.10387 29.8627 5.06105 29.8627C6.01823 29.8627 7.09543 29.55 8.21115 28.9603C9.36835 28.3365 10.8827 27.2267 12.757 25.6309C13.8342 24.7286 15.7086 22.8557 18.4601 20.0123C21.2116 17.1689 23.4445 14.9138 25.2003 13.2143H25.2063Z" fill="#571313"/>
<path d="M40.459 24.9715C40.4857 24.9478 40.5123 24.9256 40.5923 24.9256C40.6723 24.9019 40.7257 24.8797 40.8057 24.8797C41.0443 24.8797 41.2576 24.9034 41.4176 24.9493C41.6043 24.9952 41.6829 25.0649 41.6829 25.1108C41.6829 25.1345 41.6029 25.2264 41.4443 25.3879C41.2843 25.5272 41.1524 25.665 41.0457 25.7805C40.7272 26.1273 40.4871 26.4977 40.3286 26.8207C40.1419 27.1674 40.0634 27.4682 40.0634 27.7453C40.0634 27.9305 40.1167 28.092 40.2501 28.2076C40.3567 28.3231 40.5153 28.3928 40.7287 28.3928C40.942 28.3928 41.1806 28.3231 41.4206 28.2313C41.6858 28.1157 41.9792 27.9083 42.3511 27.6534C42.5111 27.5378 42.6964 27.3763 42.9364 27.2148C43.2016 26.9837 43.3883 26.8681 43.4683 26.8681C43.5483 26.8681 43.6017 26.8918 43.6283 26.914C43.655 26.96 43.6817 27.0059 43.6817 27.0755C43.6817 27.1452 43.6283 27.2148 43.5483 27.3304C43.4416 27.4223 43.2564 27.5852 42.9364 27.8164C42.3244 28.2565 41.8192 28.5558 41.4473 28.7187C41.0754 28.8803 40.7287 28.9736 40.3834 28.9736C39.9315 28.9736 39.5863 28.858 39.3462 28.6269C39.1077 28.372 38.9743 28.049 38.9743 27.6327C38.9743 27.4712 39.001 27.3097 39.0543 27.1007C39.1077 26.9155 39.161 26.7081 39.241 26.4769C38.4705 27.1007 37.7252 27.7482 37.0348 28.4194C36.3161 29.0907 35.679 29.7604 35.0937 30.4538C34.8804 30.4775 34.6685 30.4998 34.4818 30.5235C34.2684 30.5472 34.1099 30.5472 33.9499 30.5472C33.7898 30.5472 33.658 30.5235 33.5513 30.5012C33.4713 30.4775 33.4179 30.4316 33.4179 30.3857C33.4179 30.2938 33.6832 29.993 34.1618 29.5307C34.4803 29.2299 34.7204 28.9988 34.9056 28.8136C35.8894 27.8194 36.528 27.1259 36.8733 26.6859C37.2185 26.2473 37.3785 25.8991 37.3785 25.6916C37.3785 25.622 37.3785 25.5761 37.3519 25.5524C37.3252 25.5064 37.2985 25.5064 37.2452 25.5064C37.0318 25.5064 36.7399 25.5983 36.368 25.7613C36.0228 25.9465 35.5442 26.2236 34.9589 26.6162C34.7989 26.7318 34.587 26.8933 34.3203 27.1022C34.0284 27.3571 33.815 27.4726 33.7084 27.4726C33.655 27.4726 33.6017 27.4489 33.5483 27.403C33.495 27.3571 33.4683 27.3111 33.4683 27.2637C33.4683 27.1719 33.5483 27.0563 33.7335 26.8933C33.9202 26.7318 34.2388 26.4769 34.6907 26.1539C35.356 25.6679 35.9931 25.2753 36.6051 24.9745C37.2437 24.6737 37.6956 24.5344 38.0142 24.5344C38.2527 24.5344 38.4394 24.6041 38.5728 24.7196C38.7328 24.8589 38.7861 25.0426 38.7861 25.2753C38.7861 25.4368 38.7595 25.622 38.6795 25.8309C38.6261 26.0621 38.5194 26.2932 38.3609 26.5703L40.4619 24.9745L40.459 24.9715Z" fill="#571313"/>
<path d="M55.7444 25.8028C55.1858 26.1495 54.5738 26.5659 53.9634 27.0282C53.3514 27.4905 52.9795 27.7216 52.8995 27.7216C52.8462 27.7216 52.8195 27.6979 52.7928 27.6757C52.7661 27.6298 52.7395 27.5838 52.7395 27.5142C52.7395 27.3986 53.058 27.0978 53.7233 26.6118C54.3619 26.1495 55.4243 25.4324 56.9401 24.4619L64.7309 16.8548C64.8376 16.7393 64.9442 16.6696 65.0228 16.6237C65.1295 16.6 65.2361 16.5778 65.368 16.5778C65.6066 16.5778 65.8199 16.6015 65.98 16.6696C66.14 16.7156 66.2185 16.7852 66.2185 16.8771C66.2185 16.9467 66.2185 16.9926 66.1652 17.0386C66.1385 17.0845 66.0852 17.1541 65.9785 17.246L56.9653 26.4029C56.3 27.0741 55.8214 27.652 55.4762 28.1839C55.1309 28.7159 54.9442 29.1322 54.9442 29.433C54.9442 29.6182 54.9976 29.756 55.0509 29.8494C55.1309 29.919 55.2643 29.9649 55.4495 29.9649C55.8481 29.9649 56.3267 29.8494 56.8853 29.6182C57.4439 29.4108 58.1077 29.0403 58.9063 28.5543C59.4116 28.2313 59.9435 27.8831 60.4754 27.4905C61.0074 27.0978 61.2993 26.9126 61.3526 26.9126C61.4326 26.9126 61.4593 26.9363 61.5126 26.9586C61.5393 27.0045 61.566 27.0504 61.566 27.1201C61.566 27.2593 61.0874 27.6757 60.1035 28.3454L60.0502 28.3914C59.0663 29.0626 58.1625 29.593 57.2853 29.9634C56.4348 30.3561 55.7162 30.5413 55.1591 30.5413C54.7605 30.5413 54.4405 30.4494 54.2286 30.2642C53.9885 30.079 53.8833 29.8019 53.8833 29.4774C53.8833 29.0389 54.0434 28.5292 54.3353 27.9291C54.6538 27.3275 55.1057 26.6118 55.7444 25.8013M49.6561 23.6529C49.576 23.6529 49.496 23.6292 49.4694 23.6069C49.4427 23.5832 49.416 23.5373 49.416 23.4914C49.416 23.4454 49.7079 23.2365 50.2932 22.8439C50.8785 22.4734 51.357 22.0571 51.7289 21.5489C51.8623 21.3874 51.9942 21.1088 52.1542 20.7399C52.4461 20.0686 52.7928 19.7219 53.2181 19.7219C53.4566 19.7219 53.67 19.7916 53.8033 19.9071C53.9367 20.0227 54.0167 20.2079 54.0167 20.4154C54.0167 20.7621 53.83 21.1325 53.4581 21.5252C53.0862 21.9178 52.5276 22.3119 51.7571 22.7505C51.2518 23.0513 50.7999 23.2587 50.4547 23.4217C50.0828 23.5832 49.8161 23.6529 49.6575 23.6529M45.934 29.2256C45.4021 29.6656 44.9235 30.0123 44.4983 30.2198C44.0463 30.4509 43.6478 30.5665 43.3025 30.5665C42.9306 30.5665 42.6639 30.4509 42.452 30.2198C42.2653 29.9886 42.1601 29.6419 42.1601 29.2256C42.1601 28.7173 42.2935 28.2313 42.5854 27.769C42.8506 27.3068 43.2773 26.8667 43.8611 26.4281C44.6049 25.8502 45.4036 25.388 46.2807 25.0412C47.1312 24.6945 47.8765 24.533 48.5403 24.533C48.9122 24.533 49.1789 24.6027 49.3642 24.7182C49.5242 24.8338 49.6294 25.0412 49.6561 25.3198C49.7894 25.1805 49.9213 25.0649 50.0813 24.9494C50.2413 24.8338 50.4265 24.7182 50.6132 24.6264C50.6932 24.6264 50.7999 24.6264 50.9318 24.6027H51.197C51.5156 24.6027 51.729 24.6264 51.8623 24.6723C51.9957 24.696 52.049 24.7642 52.049 24.8797C52.049 24.9716 51.8623 25.1568 51.4637 25.4813C51.2252 25.6428 51.0652 25.7584 50.9318 25.874C49.7613 26.8222 48.8574 27.6312 48.1936 28.3025C47.555 28.9959 47.2098 29.436 47.2098 29.6893C47.2098 29.7812 47.2364 29.8508 47.2898 29.8745C47.3431 29.9205 47.4231 29.9442 47.555 29.9442C47.9269 29.9442 48.4855 29.7827 49.256 29.4582C49.9998 29.1352 50.7718 28.7188 51.5956 28.1632C51.9408 27.932 52.3142 27.6772 52.7128 27.3764C53.1114 27.0756 53.3514 26.9141 53.4314 26.9141C53.5114 26.9141 53.5381 26.9378 53.5914 26.9837C53.6181 27.0075 53.6448 27.0534 53.6448 27.123C53.6448 27.2623 53.1662 27.655 52.1824 28.3484L52.129 28.3943C51.1718 29.0655 50.2413 29.596 49.3642 29.9664C48.487 30.3591 47.7684 30.5443 47.2112 30.5443C46.8127 30.5443 46.4926 30.4524 46.2541 30.2435C46.0155 30.0583 45.9088 29.8034 45.9088 29.4804V29.3189C45.9088 29.2952 45.9355 29.2493 45.9355 29.227L45.934 29.2256ZM45.8273 28.7633L48.8056 25.988C48.9389 25.8725 49.0189 25.7806 49.0708 25.665C49.1508 25.5732 49.1775 25.4798 49.1775 25.388C49.1775 25.2961 49.1508 25.2487 49.0975 25.2027C49.0174 25.1568 48.9374 25.1331 48.8322 25.1331C48.5403 25.1331 48.1669 25.2487 47.6884 25.4561C47.2098 25.6635 46.7045 25.9643 46.1992 26.3348C45.3754 26.9126 44.7101 27.5364 44.1515 28.1839C43.6196 28.8314 43.3544 29.3174 43.3544 29.6182C43.3544 29.7101 43.381 29.8034 43.4611 29.8731C43.5411 29.9427 43.6478 29.9649 43.753 29.9649C43.993 29.9649 44.2849 29.8494 44.6568 29.6419C45.0287 29.4345 45.4273 29.1337 45.8273 28.7633Z" fill="#571313"/>
<path d="M66.721 27.5601C65.6038 28.5084 64.5932 29.2478 63.6627 29.7338C62.7322 30.242 61.9617 30.4969 61.2965 30.4969C60.8445 30.4969 60.4993 30.3813 60.2326 30.1502C59.9674 29.919 59.834 29.6182 59.834 29.2478C59.834 28.7159 60.0726 28.1617 60.5778 27.5824C61.0564 26.9808 61.7484 26.4029 62.6522 25.8488C63.3175 25.4102 64.008 25.0857 64.7266 24.8546C65.4185 24.5997 66.0557 24.4841 66.5876 24.4841C67.0129 24.4841 67.3581 24.576 67.6248 24.7849C67.89 24.9924 68.0234 25.2472 68.0234 25.5717C68.0234 25.7791 67.9434 26.034 67.81 26.3111C67.65 26.5659 67.4114 26.8667 67.1181 27.1897C67.1981 27.3512 67.3314 27.4905 67.5166 27.5824C67.6767 27.652 67.8619 27.6979 68.1019 27.6979C68.4205 27.6979 68.819 27.5587 69.2458 27.3053C69.671 27.0504 69.9377 26.9126 70.0429 26.9126C70.0963 26.9126 70.1496 26.9363 70.1763 26.9586C70.203 26.9823 70.203 27.0282 70.203 27.0979C70.203 27.2371 69.9644 27.4683 69.4591 27.7454C68.9806 28.0224 68.5286 28.1617 68.1034 28.1617C67.8382 28.1617 67.5715 28.1158 67.3596 28.0224C67.1462 27.9306 66.9343 27.7676 66.721 27.5601ZM61.0046 29.5723C61.0046 29.7116 61.0579 29.8034 61.1112 29.8494C61.1913 29.919 61.3246 29.9412 61.4831 29.9412C61.8551 29.9412 62.3603 29.7797 62.9989 29.4789C63.6109 29.1782 64.328 28.7159 65.1518 28.1143C65.8705 27.5824 66.4276 27.0964 66.8262 26.6341C67.2247 26.1718 67.4114 25.8251 67.4114 25.548C67.4114 25.4087 67.3581 25.2931 67.2514 25.2013C67.1714 25.1316 67.038 25.0857 66.8528 25.0857C66.5609 25.0857 66.1609 25.2013 65.6571 25.4561C65.1518 25.6873 64.5932 26.034 64.0346 26.4503C63.1041 27.1438 62.3855 27.7676 61.8284 28.3232C61.2698 28.9011 61.0046 29.3174 61.0046 29.5723Z" fill="#571313"/>
<path d="M76.7485 27.6993C76.6152 27.5141 76.5351 27.3289 76.4566 27.1911C76.4033 27.0296 76.3766 26.8903 76.3766 26.7511C76.3766 26.1954 76.6152 25.7109 77.1204 25.2486C77.599 24.7863 78.1576 24.5552 78.7429 24.5552C78.9814 24.5552 79.1681 24.6011 79.3282 24.7167C79.4615 24.8323 79.5148 24.9715 79.5148 25.179C79.5148 25.4338 79.3815 25.7346 79.1163 26.1036C78.851 26.4503 78.3725 26.9822 77.6805 27.6534C77.8405 27.7231 77.9991 27.7927 78.1591 27.8386C78.3458 27.8846 78.5043 27.9083 78.691 27.9083C79.2763 27.9083 79.8349 27.7468 80.3653 27.4223C80.8973 27.0993 81.1625 26.9363 81.1892 26.9363C81.2692 26.9363 81.3225 26.96 81.3492 26.9822C81.4025 27.0281 81.4292 27.0741 81.4292 27.1215C81.4292 27.3289 81.1373 27.5838 80.4987 27.8846C79.8601 28.2076 79.223 28.3706 78.531 28.3706C78.2924 28.3706 78.0524 28.3468 77.839 28.3009C77.599 28.255 77.3871 28.1853 77.1738 28.0935C76.0299 28.9262 75.0208 29.55 74.1422 29.9426C73.265 30.3353 72.4931 30.5442 71.7759 30.5442C71.3507 30.5442 71.0054 30.4523 70.7921 30.2671C70.552 30.1056 70.4468 29.8508 70.4468 29.5041C70.4468 29.1573 70.6069 28.7869 70.9254 28.3483C71.244 27.9097 71.6959 27.4697 72.2545 27.0533C72.4145 26.9377 72.6531 26.7762 72.9198 26.5673C73.8236 25.9198 74.2489 25.5272 74.2489 25.4116C74.2489 25.3657 74.2222 25.3197 74.1689 25.2723C74.1155 25.2264 74.0355 25.2027 73.9555 25.2027C73.7955 25.2027 73.5303 25.2945 73.1317 25.4575C72.7598 25.619 72.3345 25.8502 71.8559 26.151C71.4574 26.3821 71.0321 26.6829 70.5802 27.0059C70.1016 27.3289 69.8364 27.4919 69.7564 27.4919C69.703 27.4919 69.6497 27.4682 69.623 27.4223C69.5697 27.3986 69.543 27.3526 69.543 27.3067C69.543 27.1911 69.703 27.0296 69.9949 26.7985C70.3135 26.5436 70.7387 26.2665 71.2973 25.9198C72.0411 25.4575 72.6798 25.133 73.265 24.9019C73.8236 24.6707 74.3022 24.5552 74.6741 24.5552C74.966 24.5552 75.1794 24.6248 75.3394 24.7626C75.4728 24.9019 75.5528 25.0856 75.5528 25.3405C75.5528 25.8946 74.7556 26.7733 73.1598 27.9305L73.0265 28.0461C72.4945 28.4387 72.1226 28.7395 71.9093 28.9706C71.6959 29.2018 71.5907 29.4092 71.5907 29.5722C71.5907 29.6878 71.6441 29.7797 71.7241 29.8493C71.8307 29.9189 71.9626 29.9412 72.1493 29.9412C72.6279 29.9412 73.2932 29.7337 74.1437 29.3396C74.9675 28.9232 75.8447 28.3691 76.75 27.6979M77.2004 27.3289C77.8124 26.7273 78.2376 26.2651 78.5295 25.942C78.7947 25.5953 78.9281 25.3405 78.9281 25.179C78.9281 25.133 78.9014 25.1093 78.8748 25.0871C78.8214 25.0634 78.7947 25.0634 78.7147 25.0634C78.3428 25.0634 77.9709 25.2486 77.5975 25.619C77.2256 25.9895 77.0389 26.3821 77.0389 26.7748C77.0389 26.8444 77.0656 26.914 77.0923 27.0059C77.1189 27.1215 77.1456 27.2133 77.199 27.3289H77.2004Z" fill="#571313"/>
<path d="M88.8402 30.4509C88.5483 30.4969 88.3616 30.5206 88.2016 30.5206C88.0682 30.5443 87.963 30.5443 87.8296 30.5443C87.643 30.5443 87.5111 30.5206 87.4311 30.4983C87.3244 30.4524 87.271 30.4065 87.271 30.3368C87.271 30.2672 87.5629 29.9442 88.1215 29.3885C88.2816 29.227 88.4134 29.1115 88.4934 29.0181L92.4022 25.0649C91.4717 25.5969 90.5678 26.1747 89.6907 26.7763C88.8135 27.4001 88.3349 27.7246 88.2816 27.7246C88.2282 27.7246 88.2016 27.7009 88.1749 27.655C88.1482 27.6312 88.1215 27.5853 88.1215 27.5157C88.1215 27.3542 88.6001 26.96 89.5573 26.2903C90.5145 25.6191 91.9503 24.6945 93.8379 23.5388L100.458 16.8563L100.485 16.8326C100.645 16.6474 100.83 16.5778 101.043 16.5778C101.282 16.5778 101.522 16.6015 101.709 16.6696C101.895 16.7393 101.974 16.8089 101.974 16.8771C101.974 16.923 101.947 16.9689 101.921 17.0163C101.894 17.086 101.841 17.1556 101.761 17.2238L93.1727 25.9169C93.9165 25.4546 94.5284 25.1079 95.087 24.8768C95.6189 24.6456 96.0975 24.53 96.4428 24.53C96.8147 24.53 97.0814 24.6219 97.2933 24.7849C97.5066 24.9464 97.6118 25.1776 97.6118 25.4783C97.6118 25.7554 97.5052 25.9866 97.2933 26.1718C97.0547 26.3792 96.788 26.4726 96.4428 26.4726C96.2828 26.4726 96.1509 26.4266 96.0175 26.3111C95.9108 26.1955 95.8575 26.0799 95.8575 25.9184C95.8575 25.7791 95.9108 25.6176 96.0442 25.502C96.1776 25.3628 96.3628 25.225 96.6561 25.1094H96.5495C96.2042 25.1094 95.779 25.2013 95.3271 25.3865C94.8485 25.5939 94.2632 25.9184 93.5194 26.357C93.918 26.4726 94.2113 26.6341 94.3965 26.843C94.5832 27.0504 94.6884 27.3053 94.6884 27.6061C94.6884 27.9068 94.5017 28.2995 94.1032 28.7159C93.7046 29.1322 93.5179 29.4789 93.5179 29.7101C93.5179 29.7797 93.5446 29.8494 93.6246 29.8716C93.6779 29.9175 93.7846 29.9412 93.8898 29.9412C94.2617 29.9412 94.8203 29.7797 95.5641 29.4552C96.3079 29.1085 97.0799 28.6921 97.9304 28.138C98.2756 27.9068 98.6475 27.652 99.0476 27.3512C99.4462 27.0504 99.6862 26.9126 99.7662 26.9126C99.8196 26.9126 99.8729 26.9363 99.9263 26.9586C99.9529 27.0045 99.9796 27.0504 99.9796 27.1201C99.9796 27.2593 99.501 27.652 98.5438 28.3454L98.4638 28.3914C97.5066 29.0626 96.5761 29.593 95.699 29.9634C94.8218 30.3561 94.1032 30.5413 93.5461 30.5413C93.1475 30.5413 92.8289 30.4257 92.5889 30.2183C92.3503 30.0331 92.217 29.756 92.217 29.4315C92.217 29.107 92.4037 28.7381 92.7756 28.2758C93.1475 27.8135 93.3342 27.4668 93.3342 27.2816C93.3342 27.0741 93.2808 26.9348 93.1475 26.8415C92.9875 26.7259 92.8022 26.6563 92.5355 26.6563C91.8702 27.2579 91.2331 27.8817 90.6212 28.5055C89.9826 29.153 89.3988 29.8005 88.8402 30.448M80.4656 29.6641C80.5189 29.8256 80.6256 29.9412 80.8108 30.0109C80.9975 30.0805 81.2361 30.1264 81.5546 30.1264C82.4051 30.1264 83.0704 29.7338 83.549 28.9248C84.0276 28.1158 84.3195 26.9126 84.3995 25.3183C83.5757 25.7347 82.8037 26.197 82.0866 26.7052C81.3694 27.2371 80.996 27.492 80.916 27.492C80.836 27.492 80.8094 27.4683 80.756 27.446C80.7293 27.4223 80.7027 27.3764 80.7027 27.3305C80.7027 27.169 81.0479 26.8445 81.7665 26.3599C82.4837 25.874 83.389 25.3198 84.5314 24.7182C84.5847 24.2782 84.7447 23.9314 84.9566 23.6544C85.1952 23.3995 85.4352 23.2617 85.7271 23.2617C85.8605 23.2617 85.9657 23.3076 86.0457 23.3773C86.1524 23.4469 86.179 23.5625 86.179 23.7003C86.179 23.9077 86.099 24.1389 85.8871 24.3478C85.7004 24.5789 85.4352 24.7642 85.1167 24.9034C85.3033 25.1346 85.4352 25.4117 85.5152 25.7124C85.5952 26.0355 85.6486 26.3837 85.6486 26.7526C85.6486 27.3764 85.5419 27.9083 85.3034 28.3706C85.09 28.8329 84.7447 29.2256 84.3195 29.5041C85.4367 29.1115 86.4457 28.6018 87.4029 27.932C88.3334 27.2608 88.8387 26.9141 88.8387 26.9141C88.892 26.9141 88.9454 26.9378 88.9987 26.9837C89.0254 27.0075 89.0521 27.0534 89.0521 27.123C89.0521 27.2386 88.8654 27.446 88.4934 27.7468C88.1215 28.0698 87.6163 28.3943 87.031 28.741C86.0738 29.3189 85.1433 29.7812 84.1861 30.082C83.2556 30.405 82.4051 30.568 81.6598 30.568C81.1279 30.568 80.676 30.4524 80.3308 30.245C79.9589 30.0138 79.7988 29.7367 79.7988 29.39C79.7988 29.1129 79.9055 28.8818 80.0907 28.7188C80.3041 28.5336 80.5426 28.4417 80.8345 28.4417C81.0479 28.4417 81.2331 28.5114 81.3665 28.6032C81.4998 28.7188 81.5532 28.8803 81.5532 29.0433C81.5532 29.2507 81.4731 29.4137 81.3146 29.5293C81.1546 29.6212 80.9694 29.6908 80.7027 29.6908H80.5426C80.516 29.6671 80.4893 29.6671 80.4626 29.6671" fill="#571313"/>
<path d="M106.021 23.6529C105.941 23.6529 105.861 23.6292 105.835 23.6069C105.808 23.5832 105.781 23.5373 105.781 23.4914C105.781 23.4454 106.073 23.2365 106.658 22.8439C107.244 22.4734 107.722 22.0571 108.094 21.5489C108.228 21.3874 108.359 21.1088 108.519 20.7399C108.811 20.0686 109.158 19.7219 109.583 19.7219C109.822 19.7219 110.035 19.7916 110.169 19.9071C110.302 20.0227 110.382 20.2079 110.382 20.4154C110.382 20.7621 110.195 21.1325 109.823 21.5252C109.451 21.9178 108.893 22.3119 108.122 22.7505C107.617 23.0513 107.165 23.2587 106.82 23.4217C106.448 23.5832 106.181 23.6529 106.023 23.6529M102.299 29.2256C101.767 29.6656 101.289 30.0123 100.864 30.2198C100.412 30.4509 100.013 30.5665 99.6678 30.5665C99.2959 30.5665 99.0292 30.4509 98.8173 30.2198C98.6306 29.9886 98.5254 29.6419 98.5254 29.2256C98.5254 28.7173 98.6587 28.2313 98.9506 27.769C99.2159 27.3068 99.6426 26.8667 100.226 26.4281C100.97 25.8502 101.769 25.3879 102.646 25.0412C103.496 24.6945 104.242 24.533 104.906 24.533C105.278 24.533 105.544 24.6026 105.729 24.7182C105.889 24.8338 105.995 25.0412 106.021 25.3198C106.155 25.1805 106.287 25.0649 106.447 24.9494C106.607 24.8338 106.792 24.7182 106.978 24.6264C107.059 24.6264 107.165 24.6264 107.297 24.6026H107.562C107.881 24.6026 108.094 24.6264 108.228 24.6723C108.361 24.696 108.414 24.7642 108.414 24.8797C108.414 24.9716 108.228 25.1568 107.829 25.4813C107.589 25.6428 107.43 25.7584 107.297 25.8739C106.127 26.8222 105.223 27.6312 104.559 28.3025C103.92 28.9959 103.575 29.436 103.575 29.6893C103.575 29.7812 103.602 29.8508 103.655 29.8745C103.708 29.9205 103.788 29.9442 103.92 29.9442C104.292 29.9442 104.851 29.7827 105.621 29.4582C106.365 29.1352 107.137 28.7188 107.961 28.1632C108.306 27.932 108.678 27.6772 109.078 27.3764C109.477 27.0756 109.717 26.9141 109.795 26.9141C109.874 26.9141 109.902 26.9378 109.955 26.9837C109.982 27.0074 110.009 27.0534 110.009 27.123C110.009 27.2623 109.53 27.655 108.546 28.3484L108.493 28.3943C107.536 29.0655 106.605 29.596 105.728 29.9664C104.851 30.3591 104.132 30.5443 103.575 30.5443C103.176 30.5443 102.858 30.4524 102.618 30.2435C102.379 30.0583 102.273 29.8034 102.273 29.4804V29.3189C102.273 29.2952 102.299 29.2493 102.299 29.227V29.2256ZM102.193 28.7633L105.171 25.988C105.304 25.8725 105.384 25.7806 105.436 25.665C105.516 25.5732 105.543 25.4798 105.543 25.3879C105.543 25.2961 105.516 25.2487 105.463 25.2027C105.383 25.1568 105.303 25.1331 105.197 25.1331C104.906 25.1331 104.532 25.2487 104.054 25.4561C103.575 25.6635 103.07 25.9643 102.565 26.3348C101.741 26.9126 101.075 27.5364 100.517 28.1839C99.9849 28.8314 99.7196 29.3174 99.7196 29.6182C99.7196 29.7101 99.7463 29.8034 99.8263 29.8731C99.9063 29.9427 100.013 29.9649 100.118 29.9649C100.357 29.9649 100.65 29.8493 101.022 29.6419C101.394 29.4345 101.793 29.1337 102.193 28.7633Z" fill="#571313"/>
<path d="M58.0946 44.7878C59.3881 44.5507 60.4742 44.1581 61.3558 43.6321C62.2374 43.1061 62.6775 42.6082 62.6775 42.1356C62.6775 41.9785 62.6479 41.8466 62.5901 41.7948C62.5012 41.7162 62.3841 41.6896 62.2374 41.6896C61.7677 41.6896 61.1795 41.9518 60.4742 42.4778C59.7689 43.0038 58.9762 43.7654 58.0946 44.7893M57.6827 45.5494C57.5938 45.7065 57.536 45.865 57.4767 46.0221C57.4471 46.1791 57.4175 46.311 57.4175 46.4429C57.4175 46.7051 57.5064 46.9155 57.7108 47.0726C57.9168 47.2296 58.1805 47.3096 58.5332 47.3096C59.1214 47.3096 59.8549 47.0992 60.7365 46.7051C61.6181 46.311 62.5293 45.7598 63.528 45.0234C63.7917 44.8397 64.1162 44.5774 64.4689 44.2885C64.8512 43.9729 65.0853 43.8158 65.1742 43.8158C65.2334 43.8158 65.2912 43.8425 65.3505 43.8677C65.3801 43.9195 65.4098 43.9729 65.4098 44.0514C65.4098 44.1566 65.2927 44.3137 65.0275 44.5507C64.7637 44.7878 64.3222 45.1286 63.6762 45.6279C62.7353 46.3628 61.7663 46.9155 60.8254 47.3348C59.8563 47.729 59.0325 47.9394 58.2976 47.9394C57.6219 47.9394 57.0633 47.7556 56.6514 47.3615C56.2395 46.994 56.035 46.4947 56.035 45.8383C56.035 45.2605 56.241 44.6826 56.6514 44.1047C57.0633 43.5269 57.6501 42.9757 58.4443 42.4497C59.1496 42.0037 59.7956 41.6614 60.3838 41.451C61.0002 41.2139 61.5588 41.1102 62.0582 41.1102C62.5279 41.1102 62.8509 41.1621 63.0272 41.2939C63.2331 41.451 63.3206 41.6614 63.3206 42.0037C63.3206 42.6601 62.7916 43.3431 61.704 44.0529C60.6165 44.7626 59.2651 45.2605 57.6782 45.5494H57.6827ZM43.8421 48.9899L38.5525 55.1627C38.4354 55.1893 38.2872 55.2145 38.1702 55.2412C38.0235 55.2679 37.8472 55.2679 37.6708 55.2679C37.4071 55.2679 37.2011 55.2412 37.0826 55.216C36.9655 55.1893 36.9063 55.1375 36.9063 55.0589C36.9063 54.8752 37.6116 53.9817 38.9925 52.38C40.3735 50.7783 43.2835 47.5467 47.662 42.7134L45.4587 44.2633C45.3416 44.3418 45.2527 44.4203 45.1934 44.447C45.1342 44.4737 45.0764 44.4737 45.0171 44.4737C44.9578 44.4737 44.9001 44.447 44.8408 44.3951C44.7815 44.3685 44.7519 44.3166 44.7519 44.2633C44.7519 44.1314 45.2809 43.7373 46.3092 43.0023C47.3671 42.2926 48.2783 41.6095 49.1007 40.9798C49.483 40.6909 49.9527 40.2968 50.5409 39.8241C51.5692 38.9573 52.2745 38.5365 52.6271 38.5365C52.7738 38.5365 52.8627 38.5365 52.9205 38.5884C52.9798 38.615 53.0376 38.6402 53.0376 38.7202C53.0376 38.8254 52.5975 39.2981 51.7737 40.1916C50.9513 41.0584 50.2164 41.9518 49.5111 42.8453C50.3927 42.2941 51.1573 41.8733 51.8626 41.5844C52.5382 41.2688 53.0968 41.1384 53.5087 41.1384C53.8318 41.1384 54.0673 41.2169 54.2437 41.3754C54.42 41.5325 54.5089 41.7696 54.5089 42.0585C54.5089 42.3474 54.3918 42.663 54.1562 43.0038C53.9207 43.3194 53.4213 43.7921 52.6582 44.4485C52.4523 44.6322 52.1589 44.8693 51.7766 45.1582C50.6313 46.1302 50.043 46.7347 50.043 46.9437C50.043 47.0222 50.1023 47.1007 50.1601 47.1807C50.249 47.2326 50.3661 47.2593 50.5127 47.2593C50.9247 47.2593 51.541 47.0755 52.3634 46.7081C53.1561 46.3406 54.0377 45.868 54.949 45.2368C55.3312 44.9745 55.7417 44.6856 56.1832 44.3433C56.6233 44.0025 56.8885 43.8173 56.9759 43.8173C57.0352 43.8173 57.093 43.844 57.1522 43.8958C57.1819 43.9225 57.2115 43.9743 57.2115 44.0529C57.2115 44.2099 56.6825 44.6826 55.595 45.4457L55.5357 45.4975C54.5074 46.2325 53.5087 46.837 52.5086 47.2845C51.5396 47.7053 50.775 47.9409 50.246 47.9409C49.8341 47.9409 49.4815 47.8357 49.2177 47.6253C48.954 47.4149 48.8058 47.1259 48.8058 46.7851C48.8058 46.391 48.9525 45.9702 49.2459 45.5242C49.5393 45.1034 50.0682 44.5789 50.7735 43.9743C51.1262 43.6854 51.5959 43.3179 52.1545 42.9238C52.7131 42.5297 52.9768 42.2674 52.9768 42.1356C52.9768 42.057 52.9472 42.0037 52.8879 41.9518C52.8286 41.9251 52.7709 41.9 52.6523 41.9C52.5338 41.9 52.3293 41.9518 52.0359 42.0837C51.7426 42.2408 51.3306 42.4245 50.8313 42.7134C49.7141 43.3431 48.628 44.1062 47.6279 44.973C46.6292 45.8398 45.3653 47.1793 43.8377 48.9914" fill="#571313"/>
<path d="M65.1711 47.8342C64.8481 47.8861 64.6421 47.9127 64.4658 47.9127C64.3191 47.9394 64.2006 47.9394 64.0539 47.9394C63.848 47.9394 63.7013 47.9127 63.6138 47.8875C63.4968 47.8357 63.4375 47.7823 63.4375 47.7038C63.4375 47.6253 63.7605 47.2578 64.3784 46.6266C64.5547 46.4429 64.7014 46.311 64.7903 46.2058L69.1095 41.7148C68.0812 42.3193 67.0825 42.9757 66.112 43.6588C65.143 44.3685 64.614 44.736 64.5547 44.736C64.4955 44.736 64.4658 44.7093 64.4377 44.6574C64.408 44.6308 64.3784 44.5789 64.3784 44.5004C64.3784 44.3166 64.9074 43.8707 65.9653 43.1076C67.0232 42.346 68.6101 41.2955 70.6964 39.9812L78.013 32.3904L78.0427 32.3638C78.219 32.1534 78.4249 32.0748 78.659 32.0748C78.9228 32.0748 79.188 32.1015 79.394 32.18C79.5999 32.2586 79.6873 32.3371 79.6873 32.4171C79.6873 32.469 79.6577 32.5223 79.6281 32.5742C79.5984 32.6527 79.5392 32.7312 79.4517 32.8112L69.96 42.6883C70.7823 42.1623 71.458 41.7681 72.0758 41.5059C72.6641 41.2436 73.193 41.1117 73.5738 41.1117C73.9858 41.1117 74.2791 41.2169 74.5147 41.4007C74.7503 41.5844 74.8674 41.8466 74.8674 42.1889C74.8674 42.5045 74.7503 42.7668 74.5147 42.9772C74.251 43.2143 73.9561 43.318 73.5738 43.318C73.3975 43.318 73.2508 43.2661 73.1041 43.1342C72.9871 43.0024 72.9278 42.872 72.9278 42.6883C72.9278 42.5312 72.9871 42.3475 73.1338 42.2156C73.2805 42.0585 73.4864 41.9 73.8094 41.7696H73.6924C73.3101 41.7696 72.8404 41.8748 72.3411 42.0852C71.8121 42.3223 71.1661 42.6897 70.3423 43.1891C70.7838 43.3209 71.1068 43.5047 71.3113 43.7403C71.5172 43.9773 71.6343 44.2663 71.6343 44.6071C71.6343 44.9478 71.4283 45.3953 70.9883 45.868C70.5482 46.3406 70.3423 46.7348 70.3423 46.997C70.3423 47.0756 70.3719 47.1541 70.4593 47.1808C70.5186 47.2326 70.6356 47.2593 70.7527 47.2593C71.1646 47.2593 71.781 47.0756 72.6033 46.7081C73.4257 46.314 74.2777 45.8413 75.2185 45.2116C75.6008 44.9493 76.0112 44.6604 76.4528 44.3181C76.8929 43.9773 77.1581 43.8188 77.2455 43.8188C77.3048 43.8188 77.3626 43.8455 77.4218 43.8707C77.4515 43.9225 77.4811 43.9759 77.4811 44.0544C77.4811 44.2114 76.9521 44.6589 75.8942 45.4472L75.8053 45.499C74.7474 46.2606 73.7191 46.8652 72.7485 47.286C71.778 47.732 70.9853 47.9424 70.3689 47.9424C69.9289 47.9424 69.5762 47.8105 69.311 47.5749C69.0458 47.3645 68.8991 47.0489 68.8991 46.6814C68.8991 46.314 69.105 45.8932 69.5155 45.3687C69.9274 44.8427 70.1319 44.45 70.1319 44.2396C70.1319 44.0025 70.0726 43.8455 69.9259 43.7403C69.7496 43.6084 69.5436 43.5299 69.2502 43.5299C68.5153 44.2129 67.81 44.9227 67.1344 45.6309C66.4291 46.3658 65.7831 47.1022 65.1652 47.8372" fill="#571313"/>
<path d="M95.6493 41.6096C95.6789 41.5829 95.7086 41.5577 95.796 41.5577C95.8834 41.5311 95.9427 41.5059 96.0316 41.5059C96.2953 41.5059 96.5309 41.5325 96.7072 41.5844C96.9132 41.6363 97.0006 41.7163 97.0006 41.7681C97.0006 41.7948 96.9132 41.9 96.7369 42.0837C96.5606 42.2408 96.4139 42.3993 96.2968 42.5297C95.9442 42.9239 95.6804 43.3447 95.5041 43.7121C95.2981 44.1062 95.2107 44.447 95.2107 44.7626C95.2107 44.973 95.27 45.1568 95.4167 45.2886C95.5337 45.4205 95.7101 45.499 95.9457 45.499C96.1812 45.499 96.445 45.4205 96.7102 45.3153C97.0036 45.1834 97.3266 44.9479 97.7385 44.6589C97.9148 44.5271 98.1208 44.3433 98.3845 44.1596C98.6779 43.8973 98.8839 43.7655 98.9728 43.7655C99.0617 43.7655 99.1195 43.7921 99.1491 43.8173C99.1787 43.8692 99.2084 43.9225 99.2084 44.001C99.2084 44.0796 99.1491 44.1581 99.0617 44.29C98.9446 44.3952 98.7387 44.5789 98.386 44.8412C97.7104 45.3405 97.1518 45.6813 96.7398 45.865C96.3279 46.0488 95.9471 46.154 95.5649 46.154C95.0655 46.154 94.6832 46.0221 94.4195 45.7598C94.1543 45.4709 94.0076 45.1034 94.0076 44.6308C94.0076 44.447 94.0372 44.2633 94.0965 44.0262C94.1558 43.8158 94.2135 43.5802 94.3024 43.3165C93.4505 44.0262 92.6281 44.7612 91.8636 45.5228C91.0709 46.2843 90.3656 47.0459 89.7181 47.8342C89.4825 47.8609 89.2484 47.8861 89.0424 47.9127C88.8068 47.9394 88.6305 47.9394 88.4542 47.9394C88.2778 47.9394 88.1312 47.9127 88.0141 47.8876C87.9267 47.8609 87.8674 47.809 87.8674 47.7557C87.8674 47.6505 88.1608 47.3097 88.6898 46.7837C89.0424 46.4429 89.3061 46.1791 89.5121 45.9687C90.5997 44.8397 91.305 44.0514 91.6872 43.5521C92.0695 43.0528 92.2458 42.6586 92.2458 42.423C92.2458 42.3445 92.2458 42.2912 92.2162 42.266C92.1866 42.2141 92.1569 42.2141 92.0992 42.2141C91.8636 42.2141 91.5406 42.3193 91.1301 42.503C90.7478 42.7134 90.2189 43.0291 89.5729 43.475C89.3965 43.6069 89.1609 43.7906 88.8676 44.0262C88.5446 44.3152 88.309 44.447 88.1919 44.447C88.1326 44.447 88.0749 44.4204 88.0156 44.3685C87.9563 44.3167 87.9282 44.2633 87.9282 44.2115C87.9282 44.1063 88.0156 43.9744 88.2215 43.7906C88.4275 43.6069 88.7801 43.318 89.2795 42.9505C90.0144 42.3993 90.7197 41.9519 91.3953 41.6111C92.1006 41.2703 92.6 41.1117 92.9526 41.1117C93.2164 41.1117 93.4223 41.1903 93.569 41.3221C93.7453 41.4792 93.8046 41.6896 93.8046 41.9519C93.8046 42.1356 93.775 42.346 93.6875 42.5816C93.6283 42.8438 93.5112 43.1076 93.3349 43.4217L95.6567 41.6096H95.6493ZM84.1602 40.1116C84.0728 40.1116 83.9839 40.0849 83.9542 40.0597C83.9246 40.0331 83.895 39.9812 83.895 39.9279C83.895 39.8745 84.218 39.6389 84.864 39.1929C85.51 38.7721 86.039 38.2995 86.4509 37.7216C86.5976 37.5379 86.7443 37.2223 86.9206 36.8029C87.2436 36.0413 87.6259 35.6472 88.0956 35.6472C88.3593 35.6472 88.5949 35.7257 88.7416 35.8576C88.8883 35.9895 88.9772 36.1984 88.9772 36.4355C88.9772 36.8296 88.7713 37.2504 88.3608 37.6964C87.9489 38.1424 87.3325 38.5899 86.4805 39.0892C85.9219 39.43 85.4226 39.6671 85.0403 39.8508C84.6284 40.0345 84.335 40.1131 84.1587 40.1131M80.0455 46.4429C79.4573 46.9422 78.9283 47.3364 78.4586 47.5719C77.9593 47.8342 77.5177 47.9661 77.1369 47.9661C76.725 47.9661 76.4316 47.8342 76.1961 47.5719C75.9901 47.3097 75.873 46.9156 75.873 46.4429C75.873 45.865 76.0197 45.3138 76.3427 44.7878C76.6361 44.2618 77.1073 43.764 77.7533 43.2646C78.5757 42.6082 79.4573 42.0822 80.4278 41.6881C81.3687 41.294 82.191 41.1102 82.9259 41.1102C83.3379 41.1102 83.6312 41.1888 83.8372 41.3207C84.0135 41.4525 84.1306 41.6881 84.1602 42.0037C84.3069 41.8467 84.4536 41.7148 84.6299 41.5829C84.8062 41.451 85.0122 41.3207 85.2181 41.2154C85.307 41.2154 85.4241 41.2155 85.5708 41.1888H85.8642C86.2168 41.1888 86.4524 41.2155 86.5991 41.2673C86.7458 41.294 86.805 41.3725 86.805 41.5044C86.805 41.6096 86.5991 41.82 86.159 42.1874C85.8938 42.3712 85.719 42.503 85.5708 42.6334C84.2773 43.7106 83.2786 44.6293 82.5437 45.3909C81.8384 46.1791 81.4561 46.6785 81.4561 46.9674C81.4561 47.0726 81.4857 47.1511 81.545 47.1778C81.6043 47.2297 81.6917 47.2563 81.8384 47.2563C82.2503 47.2563 82.8667 47.0726 83.7187 46.7052C84.541 46.3377 85.393 45.865 86.3042 45.2338C86.6865 44.9716 87.0969 44.6826 87.5385 44.3404C87.9785 43.9996 88.2438 43.8144 88.3312 43.8144C88.4186 43.8144 88.4482 43.841 88.5075 43.8929C88.5371 43.9196 88.5668 43.9714 88.5668 44.0499C88.5668 44.207 88.0378 44.6545 86.9502 45.4427L86.891 45.4946C85.833 46.2562 84.8047 46.8607 83.8342 47.2815C82.8652 47.7275 82.071 47.9379 81.4546 47.9379C81.0145 47.9379 80.6619 47.8327 80.3967 47.5971C80.1329 47.3867 80.0144 47.0978 80.0144 46.7303V46.5466C80.0144 46.5199 80.044 46.4681 80.044 46.4414L80.0455 46.4429ZM79.9285 45.9169L83.2193 42.7653C83.366 42.6334 83.4549 42.5282 83.5127 42.3978C83.6016 42.2926 83.6297 42.1874 83.6297 42.0822C83.6297 41.977 83.6001 41.9252 83.5423 41.8718C83.4534 41.82 83.366 41.7933 83.249 41.7933C82.9259 41.7933 82.514 41.9252 81.9851 42.1608C81.4561 42.3978 80.8975 42.7386 80.3389 43.1594C79.4276 43.8158 78.6927 44.5256 78.0763 45.2605C77.4881 45.9954 77.1947 46.5481 77.1947 46.8889C77.1947 46.9941 77.2244 47.0993 77.3118 47.1778C77.3992 47.2563 77.5177 47.283 77.6348 47.283C77.8985 47.283 78.223 47.1511 78.6335 46.9156C79.0454 46.6785 79.4854 46.3377 79.927 45.9169H79.9285Z" fill="#571313"/>
<path d="M100.052 44.7878C101.345 44.5507 102.431 44.1581 103.313 43.6321C104.195 43.1061 104.635 42.6082 104.635 42.1356C104.635 41.9785 104.605 41.8466 104.547 41.7948C104.458 41.7162 104.341 41.6896 104.195 41.6896C103.725 41.6896 103.137 41.9518 102.431 42.4778C101.726 43.0038 100.933 43.7654 100.052 44.7893M99.6398 45.5494C99.5509 45.7065 99.4932 45.865 99.4339 46.0221C99.4043 46.1791 99.3746 46.311 99.3746 46.4429C99.3746 46.7051 99.462 46.9155 99.668 47.0726C99.8739 47.2297 100.138 47.3097 100.49 47.3097C101.079 47.3097 101.812 47.0993 102.694 46.7051C103.575 46.311 104.486 45.7598 105.485 45.0234C105.749 44.8397 106.073 44.5774 106.426 44.2885C106.808 43.9729 107.042 43.8158 107.131 43.8158C107.191 43.8158 107.248 43.8425 107.308 43.8677C107.337 43.9195 107.367 43.9729 107.367 44.0514C107.367 44.1566 107.25 44.3137 106.985 44.5507C106.719 44.7878 106.279 45.1286 105.633 45.6279C104.692 46.3629 103.723 46.9155 102.783 47.3349C101.813 47.729 100.99 47.9394 100.255 47.9394C99.5791 47.9394 99.0205 47.7557 98.6086 47.3615C98.1967 46.9941 97.9922 46.4947 97.9922 45.8383C97.9922 45.2605 98.1981 44.6826 98.6086 44.1047C99.0205 43.5269 99.6072 42.9757 100.401 42.4497C101.107 42.0037 101.753 41.6614 102.341 41.451C102.957 41.2139 103.516 41.1102 104.015 41.1102C104.485 41.1102 104.808 41.1621 104.984 41.294C105.19 41.451 105.278 41.6614 105.278 42.0037C105.278 42.6601 104.749 43.3432 103.661 44.0529C102.574 44.7626 101.222 45.2605 99.6354 45.5494H99.6398Z" fill="#571313"/>
<path d="M107.159 47.8342C107.07 47.8609 106.953 47.886 106.836 47.886C106.689 47.9127 106.483 47.9127 106.16 47.9127C105.837 47.9127 105.602 47.9127 105.514 47.886C105.397 47.8594 105.338 47.8075 105.338 47.729C105.338 47.5719 105.75 47.1511 106.602 46.4681C107.16 45.9954 107.63 45.6013 107.983 45.2857L108.335 44.9967C110.275 43.315 111.216 42.3697 111.216 42.1074C111.216 42.0289 111.186 41.9755 111.157 41.9504C111.127 41.9237 111.097 41.8985 111.069 41.8985C110.805 41.8985 110.453 42.0037 110.041 42.2393C109.629 42.4764 109.042 42.869 108.278 43.4735C108.101 43.6054 107.866 43.7891 107.602 44.0247C107.249 44.3137 107.014 44.4707 106.897 44.4707C106.837 44.4707 106.78 44.4441 106.72 44.4189C106.661 44.367 106.631 44.3137 106.631 44.2618C106.631 44.1299 106.984 43.8158 107.66 43.2631C107.806 43.1579 107.895 43.0527 107.983 43.0009C108.775 42.3712 109.481 41.897 110.099 41.5829C110.687 41.2673 111.216 41.1102 111.626 41.1102C111.92 41.1102 112.155 41.1888 112.332 41.3725C112.508 41.5562 112.567 41.8185 112.567 42.1874V42.3978C112.538 42.503 112.538 42.6082 112.508 42.792C113.477 42.1874 114.241 41.7681 114.83 41.5044C115.388 41.2673 115.888 41.1369 116.3 41.1369C116.623 41.1369 116.858 41.2154 117.034 41.374C117.211 41.531 117.298 41.7681 117.298 42.057C117.298 42.346 117.181 42.6616 116.946 43.0024C116.71 43.318 116.211 43.7906 115.448 44.447C115.242 44.6308 114.948 44.8678 114.596 45.1568C113.421 46.1287 112.832 46.7333 112.832 46.9422C112.832 47.0207 112.892 47.0993 112.949 47.1793C113.037 47.2311 113.155 47.2578 113.302 47.2578C113.742 47.2578 114.33 47.0741 115.153 46.7066C115.975 46.3392 116.827 45.8665 117.738 45.2353C118.15 44.973 118.561 44.6841 119.002 44.3418C119.442 44.001 119.707 43.8158 119.795 43.8158C119.854 43.8158 119.912 43.8425 119.942 43.8677C119.971 43.9195 120.001 43.9729 120.001 44.0514C120.001 44.2085 119.472 44.6559 118.414 45.4442L118.355 45.4961C117.297 46.231 116.268 46.8355 115.298 47.283C114.329 47.7038 113.594 47.9394 113.065 47.9394C112.653 47.9394 112.3 47.8342 112.037 47.6238C111.773 47.4134 111.625 47.1245 111.625 46.7837C111.625 46.3629 111.801 45.9169 112.154 45.4442C112.506 44.9449 113.006 44.4455 113.652 43.9477C113.887 43.7906 114.151 43.5802 114.533 43.2913C115.415 42.6349 115.855 42.2408 115.855 42.1089C115.855 42.057 115.825 42.0037 115.768 41.9518C115.679 41.9252 115.621 41.9 115.502 41.9C114.973 41.9 113.915 42.4512 112.329 43.555C110.742 44.6589 109.008 46.1036 107.157 47.8371" fill="#571313"/>
<path d="M64.7244 20.1932C64.6444 20.1932 64.5644 20.1695 64.5377 20.1472C64.511 20.1235 64.4843 20.0776 64.4843 20.0317C64.4843 19.9857 64.7762 19.7768 65.3615 19.3842C65.9468 19.0137 66.4254 18.5974 66.7973 18.0891C66.9306 17.9276 67.0625 17.6506 67.2225 17.2801C67.5144 16.6089 67.8611 16.2622 68.2864 16.2622C68.5249 16.2622 68.7383 16.3318 68.8717 16.4474C69.005 16.563 69.085 16.7482 69.085 16.9556C69.085 17.3024 68.8983 17.6728 68.5264 18.0654C68.1545 18.4581 67.5959 18.8522 66.8254 19.2908C66.3202 19.5916 65.8683 19.799 65.523 19.962C65.1511 20.1235 64.8844 20.1932 64.7259 20.1932" fill="#571313"/>
</g>
<defs>
<clipPath id="clip0_1_29555">
<rect width="120" height="49.268" fill="white" transform="translate(0 6)"/>
</clipPath>
</defs>
</svg>
